<svg width="11" height="11" viewBox="0 0 11 11" fill="none" xmlns="http://www.w3.org/2000/svg">
    <path
        d="M10.5956 4.8904L8.57224 2.86608V0.869511C8.57224 0.817931 8.56059 0.767017 8.53815 0.720572C8.51571 0.674127 8.48308 0.633351 8.44267 0.601288C8.40227 0.569226 8.35514 0.546706 8.30481 0.535411C8.25448 0.524115 8.20225 0.524336 8.15202 0.536056L2.69246 1.80996C2.61719 1.82752 2.55008 1.87003 2.50204 1.93057C2.454 1.99111 2.42786 2.06613 2.42786 2.14341V5.00475H0.608398C0.570534 5.00475 0.533041 5.01221 0.498059 5.0267C0.463078 5.04119 0.431292 5.06242 0.404518 5.0892C0.377744 5.11597 0.356506 5.14776 0.342016 5.18274C0.327526 5.21772 0.320068 5.25521 0.320068 5.29308V10.1847C0.320068 10.2226 0.327526 10.2601 0.342016 10.2951C0.356505 10.3301 0.377744 10.3618 0.404518 10.3886C0.431291 10.4154 0.463077 10.4366 0.498059 10.4511C0.533041 10.4656 0.570534 10.4731 0.608398 10.4731H10.3917C10.4296 10.4731 10.4671 10.4656 10.502 10.4511C10.537 10.4366 10.5688 10.4154 10.5956 10.3886C10.6223 10.3618 10.6436 10.3301 10.6581 10.2951C10.6726 10.2601 10.68 10.2226 10.68 10.1847V5.09423C10.6801 5.05636 10.6727 5.01884 10.6582 4.98386C10.6437 4.94887 10.6224 4.9171 10.5956 4.8904V4.8904ZM2.4259 9.89641H0.896727V5.58142H2.42785L2.4259 9.89641ZM4.32195 8.85991H3.34367V7.62133H4.32195V8.85991ZM4.32195 6.60324H3.34367V5.36467H4.32195V6.60324ZM4.32195 4.34658H3.34367V3.10801H4.32195V4.34658ZM5.98048 8.85991H5.00219V7.62133H5.98048L5.98048 8.85991ZM5.98048 6.60324H5.00219V5.36467H5.98048L5.98048 6.60324ZM5.98048 4.34658H5.00219V3.10801H5.98048L5.98048 4.34658ZM7.63898 8.85991H6.66071V7.62133H7.63898L7.63898 8.85991ZM7.63898 6.60324H6.66071V5.36467H7.63898L7.63898 6.60324ZM7.63898 4.34658H6.66071V3.10801H7.63898L7.63898 4.34658ZM10.1034 8.83284H8.99509C8.97069 8.82615 8.94552 8.82271 8.92022 8.82263H8.57224V3.68178L10.1034 5.21361L10.1034 8.83284Z"
        fill="#E84545"/>
    <path d="M1.98478 6.38397H1.33765V7.2033H1.98478V6.38397Z" fill="#E84545"/>
    <path d="M1.98478 8.27448H1.33765V9.0938H1.98478V8.27448Z" fill="#E84545"/>
    <path d="M9.6613 5.87628H9.01416V6.56675H9.6613V5.87628Z" fill="#E84545"/>
    <path d="M9.6613 7.46948H9.01416V8.15996H9.6613V7.46948Z" fill="#E84545"/>
</svg>
