<svg width="22" height="22" viewBox="0 0 22 22" fill="none" xmlns="http://www.w3.org/2000/svg">
    <path d="M7 8.5C7 8.9 5.66667 14 5 16.5L8 18L14.5 17L17.5 10L17 4.5C15 4.33333 10.9 4 10.5 4C10 4 7 8 7 8.5Z"
          fill="#BA181B"/>
    <path fill-rule="evenodd" clip-rule="evenodd"
          d="M0 11C0 4.928 4.917 0 11 0C17.072 0 22 4.928 22 11C22 17.083 17.072 22 11 22C4.917 22 0 17.083 0 11ZM13.453 13.013L15.235 7.38101C15.356 6.99601 15.004 6.63301 14.619 6.75401L8.987 8.51401C8.756 8.59101 8.569 8.76701 8.503 8.99801L6.743 14.641C6.622 15.015 6.985 15.378 7.359 15.257L12.969 13.497C13.2 13.431 13.387 13.244 13.453 13.013Z"
          fill="#DBA7A9"/>
</svg>
