<svg width="28" height="24" viewBox="0 0 28 24" fill="none" xmlns="http://www.w3.org/2000/svg">
    <path
        d="M19.9248 12.8333C23.9161 9.555 27.6748 6.48667 27.6748 3.85C27.6748 1.69167 25.8019 0 23.4123 0C22.069 0 20.7644 0.571667 19.9248 1.45833C19.0723 0.571667 17.7806 0 16.4373 0C14.0477 0 12.1748 1.69167 12.1748 3.85C12.1748 6.48667 15.9336 9.555 19.9248 12.8333ZM16.4373 2.33333C17.0056 2.33333 17.5869 2.57833 17.9615 2.975L19.9248 5.06333L21.8881 2.975C22.2627 2.57833 22.844 2.33333 23.4123 2.33333C24.3681 2.33333 25.0915 2.98667 25.0915 3.85C25.0915 5.15667 22.4565 7.54833 19.9248 9.67167C17.3931 7.54833 14.7581 5.145 14.7581 3.85C14.7581 2.98667 15.4815 2.33333 16.4373 2.33333Z"
        fill="#BA181B"/>
    <path
        d="M23.7998 16.3333H21.2165C21.2165 14.9333 20.2477 13.6733 18.8011 13.1833L10.8444 10.5H0.549805V23.3333H8.2998V21.6533L17.3415 23.9167L27.6748 21V19.8333C27.6748 17.8967 25.944 16.3333 23.7998 16.3333ZM3.13314 21V12.8333H5.71647V21H3.13314ZM17.3027 21.4783L8.2998 19.2267V12.8333H10.3794L17.8969 15.365C18.3361 15.5167 18.6331 15.9017 18.6331 16.3333C18.6331 16.3333 16.0627 16.275 15.6623 16.1583L12.5881 15.2367L11.7744 17.4533L14.8486 18.375C15.5073 18.5733 16.1919 18.6783 16.8894 18.6783H23.7998C24.3036 18.6783 24.7556 18.9467 24.9623 19.3317L17.3027 21.4783Z"
        fill="#BA181B"/>
</svg>
