<svg width="18" height="18" viewBox="0 0 18 18" fill="none" xmlns="http://www.w3.org/2000/svg">
    <path
        d="M17 10H1C0.45 10 0 10.45 0 11V17C0 17.55 0.45 18 1 18H17C17.55 18 18 17.55 18 17V11C18 10.45 17.55 10 17 10ZM4 16C2.9 16 2 15.1 2 14C2 12.9 2.9 12 4 12C5.1 12 6 12.9 6 14C6 15.1 5.1 16 4 16ZM17 0H1C0.45 0 0 0.45 0 1V7C0 7.55 0.45 8 1 8H17C17.55 8 18 7.55 18 7V1C18 0.45 17.55 0 17 0ZM4 6C2.9 6 2 5.1 2 4C2 2.9 2.9 2 4 2C5.1 2 6 2.9 6 4C6 5.1 5.1 6 4 6Z"
        fill="#DBA7A9"/>
    <circle cx="4" cy="4" r="2" fill="#AE2E2E"/>
    <circle cx="4" cy="14" r="2" fill="#AE2E2E"/>
</svg>
