<svg width="33" height="34" viewBox="0 0 33 34" fill="none" xmlns="http://www.w3.org/2000/svg">
    <path fill-rule="evenodd" clip-rule="evenodd"
          d="M17.2795 29.118C19.4427 28.0073 27.4127 23.3903 27.4127 15.6628C27.4127 9.77027 22.6359 4.99347 16.7434 4.99347C10.8509 4.99347 6.0741 9.77027 6.0741 15.6628C6.0741 23.3903 14.0441 28.0073 16.2073 29.118C16.5485 29.2933 16.9383 29.2933 17.2795 29.118ZM16.7434 20.2353C19.2687 20.2353 21.3159 18.1881 21.3159 15.6628C21.3159 13.1374 19.2687 11.0902 16.7434 11.0902C14.218 11.0902 12.1708 13.1374 12.1708 15.6628C12.1708 18.1881 14.218 20.2353 16.7434 20.2353Z"
          fill="#E84545"/>
</svg>
