<svg width="25" height="25" viewBox="0 0 25 25" fill="none" xmlns="http://www.w3.org/2000/svg">
    <circle cx="12.5" cy="12.5" r="12.5" fill="#BA181B"/>
    <path
        d="M25 12.5C25 19.4051 19.4031 25 12.5 25C5.59693 25 0 19.4051 0 12.5C0 5.59894 5.59693 0 12.5 0C19.4031 0 25 5.59894 25 12.5ZM12.8354 4.13306C10.0886 4.13306 8.33669 5.29017 6.96099 7.34667C6.78276 7.6131 6.84239 7.97243 7.09783 8.16613L8.84677 9.49224C9.10912 9.69118 9.48291 9.64385 9.68674 9.38528C10.5871 8.24325 11.2045 7.581 12.575 7.581C13.6047 7.581 14.8783 8.2437 14.8783 9.24219C14.8783 9.99703 14.2552 10.3847 13.2385 10.9547C12.0528 11.6194 10.4839 12.4466 10.4839 14.5161V14.7177C10.4839 15.0518 10.7547 15.3226 11.0887 15.3226H13.9113C14.2453 15.3226 14.5161 15.0518 14.5161 14.7177V14.6506C14.5161 13.216 18.709 13.1562 18.709 9.27419C18.709 6.35071 15.6765 4.13306 12.8354 4.13306ZM12.5 16.6331C11.2215 16.6331 10.1815 17.6731 10.1815 18.9516C10.1815 20.23 11.2215 21.2702 12.5 21.2702C13.7785 21.2702 14.8185 20.23 14.8185 18.9516C14.8185 17.6731 13.7785 16.6331 12.5 16.6331Z"
        fill="#DBA7A9"/>
</svg>
