<svg width="17" height="17" viewBox="0 0 17 17" fill="none" xmlns="http://www.w3.org/2000/svg">
    <path
        d="M6.58957 2.45232C7.88312 2.45232 9.05482 2.97724 9.90781 3.82086L7.52693 6.20175H13.1511V0.577606L11.2295 2.49919C10.039 1.30874 8.39867 0.577606 6.58957 0.577606C3.2807 0.577606 0.562369 3.02411 0.103065 6.20175H1.99653C2.42771 4.06457 4.32117 2.45232 6.58957 2.45232ZM11.8763 11.0198C12.4949 10.1761 12.9261 9.17317 13.0761 8.07646H11.1826C10.7514 10.2136 8.85798 11.8259 6.58957 11.8259C5.29602 11.8259 4.12432 11.301 3.27133 10.4573L5.65222 8.07646H0.0280762V13.7006L1.94966 11.779C3.1401 12.9695 4.78047 13.7006 6.58957 13.7006C8.04248 13.7006 9.3829 13.2225 10.4702 12.4258L15.0258 16.972L16.4224 15.5753L11.8763 11.0198Z"
        fill="#2B2E4A"/>
</svg>
