<svg width="445" height="364" viewBox="0 0 445 364" fill="none" xmlns="http://www.w3.org/2000/svg">
    <g clip-path="url(#clip0_357_4969)">
        <path opacity="0.1"
              d="M29.1252 142.669H67.8013V201.023H31.9531C31.8616 201.626 31.7702 202.225 31.6673 202.829H67.8013V249.882C67.7403 249.882 67.6793 249.831 67.6222 249.806C66.6058 249.359 65.5895 248.885 64.5732 248.384C64.356 248.274 64.1425 248.161 63.9215 248.055C62.9052 247.524 61.8888 246.961 60.8725 246.368C60.5181 246.161 60.1636 245.946 59.8168 245.726C54.1746 242.242 49.0465 237.823 44.6101 232.624C44.4767 232.485 44.3548 232.333 44.229 232.202C43.6116 231.46 43.0056 230.709 42.4187 229.941C42.1976 229.658 41.9842 229.371 41.7669 229.097C41.0733 228.161 40.4025 227.19 39.7546 226.216C39.6555 226.068 39.5641 225.925 39.4688 225.794C36.8147 221.729 34.6136 217.324 32.9135 212.675C32.8602 212.535 32.8106 212.384 32.7611 212.253C32.2351 210.776 31.7587 209.279 31.3471 207.752C31.1718 207.115 31.0003 206.486 30.8555 205.824C30.8021 205.634 30.7602 205.44 30.7145 205.25C28.5726 195.906 28.3248 186.195 28.3248 176.531C28.3248 175.406 28.3248 174.281 28.3248 173.156C28.3553 169.21 28.3972 165.269 28.4506 161.332C28.4709 160.319 28.49 159.302 28.5078 158.282C28.5611 155.697 28.6373 153.107 28.7364 150.511C28.7593 149.794 28.7898 149.073 28.8241 148.36C28.8393 147.946 28.8584 147.533 28.8813 147.119C28.9499 145.626 29.0312 144.143 29.1252 142.669Z"
              fill="#2B2E4A"/>
        <path opacity="0.1"
              d="M67.8013 77.696H46.5844C50.0348 71.7247 53.8032 65.9859 57.8693 60.5099C61.025 56.2239 64.3484 52.0476 67.8013 48.0232V77.696Z"
              fill="#2B2E4A"/>
        <path opacity="0.1"
              d="M67.8013 79.493V140.863H29.2472C29.2472 140.686 29.2701 140.505 29.2853 140.328C29.3196 139.843 29.3539 139.362 29.392 138.877C29.4301 138.311 29.4797 137.746 29.5292 137.189C29.5788 136.632 29.6283 135.957 29.6893 135.346C29.7503 134.734 29.7998 134.114 29.8608 133.502C29.9218 132.891 29.9828 132.279 30.0514 131.671C30.12 131.064 30.1809 130.448 30.2572 129.841C30.3143 129.339 30.3715 128.832 30.4363 128.326C30.5239 127.613 30.6154 126.9 30.7107 126.192C30.7107 126.082 30.7412 125.976 30.7564 125.871C31.453 120.683 32.3995 115.541 33.592 110.465C34.8442 105.141 36.4427 99.9251 38.375 94.8567C40.4283 89.5463 42.8333 84.411 45.5706 79.493H67.8013Z"
              fill="#2B2E4A"/>
        <path opacity="0.1"
              d="M77.0397 142.669V201.023H159.651V142.669H77.0397ZM77.0397 202.829V252.944C77.5123 253.05 77.9773 253.155 78.4461 253.244C79.0749 253.379 79.7076 253.501 80.3517 253.606L80.7328 253.666C80.9843 253.712 81.2397 253.75 81.495 253.784C82.1315 253.885 82.768 253.961 83.4006 254.028C83.6979 254.062 84.0066 254.087 84.3077 254.117L85.0433 254.176C85.4434 254.21 85.8398 254.235 86.2362 254.252C86.4801 254.252 86.724 254.273 86.9717 254.281C87.2195 254.29 87.3529 254.281 87.551 254.281H88.2714C88.5991 254.281 88.9269 254.281 89.2508 254.281H89.6701C89.9978 254.281 90.3256 254.281 90.6495 254.248H90.6686C90.8973 254.248 91.1221 254.248 91.3508 254.218C91.4155 254.222 91.4804 254.222 91.5452 254.218C91.7357 254.218 91.9263 254.218 92.1092 254.193C92.1524 254.189 92.1957 254.189 92.2388 254.193C92.6619 254.163 93.0887 254.125 93.5194 254.083C93.95 254.041 94.3578 253.99 94.7885 253.94L95.6537 253.822C99.1889 253.274 102.685 252.451 106.115 251.358C113.825 248.979 121.36 245.65 129.066 243.216C139.021 240.074 150.028 238.525 159.648 242.352V202.829H77.0397ZM159.651 77.6959V0.00830876C150.608 -0.101824 141.589 1.06773 132.813 3.48856C111.893 9.30584 93.1078 21.9233 77.0397 38.0379V77.6916H81.1978V79.4929H77.0397V140.863H159.651V79.4929H98.2072V77.6874L159.651 77.6959ZM265.786 51.4527C260.61 51.2502 255.465 49.4405 250.808 46.6352C241.912 41.2819 234.801 33.0053 226.858 26.0279C210.356 11.4868 189.889 2.70814 168.894 0.5314V77.6959H286.816L287.11 77.3542L265.786 51.4527ZM276.53 49.3434L287.921 63.1843V45.7029C284.087 46.2386 280.749 47.4831 276.53 49.3266V49.3434ZM287.921 265.389V202.829H263.629C263.568 202.563 263.499 202.293 263.423 202.023C263.495 202.293 263.56 202.563 263.625 202.829H168.894V248.068C169.793 248.806 170.681 249.586 171.561 250.371C172.512 251.231 173.456 252.102 174.393 252.982L175.338 253.847C175.792 254.269 176.253 254.691 176.71 255.091C177.628 255.91 178.551 256.72 179.481 257.521C179.946 257.926 180.414 258.324 180.884 258.715C188.328 265.012 196.18 270.696 204.376 275.72C206.213 276.855 208.069 277.947 209.936 279.014C211.179 279.723 212.43 280.418 213.69 281.098C215.581 282.119 217.486 283.104 219.407 284.051C237.116 292.85 255.843 298.887 275.051 301.988C279.314 302.683 283.597 303.231 287.898 303.633V265.38H288.28L287.921 265.389ZM168.894 79.4929V140.863H287.921V79.4929H168.894ZM168.894 142.66V201.023H287.921V142.669L168.894 142.66ZM297.16 45.6185V65.1501L311.696 47.4873C306.878 46.6071 302.033 45.9841 297.16 45.6185ZM297.16 142.669V201.023H412.925V142.669H297.16ZM412.517 270.016L412.925 202.829H297.16V304.313C304.616 304.656 312.084 304.556 319.531 304.013H319.661C323.218 303.76 326.759 303.4 330.283 302.933H330.363C349.169 300.51 367.558 295.073 384.951 286.793L412.517 270.016ZM435.259 152.253C434.819 151.128 434.368 150.003 433.906 148.879C433.044 146.769 432.137 144.719 431.2 142.673H422.167V201.023H445C444.981 184.495 441.2 167.621 435.259 152.253V152.253ZM422.167 202.829V260.622C428.597 253.801 434.035 245.992 437.946 237.066C442.652 226.313 444.806 214.678 444.985 202.824L422.167 202.829ZM422.167 125.664V140.851H430.354C427.872 135.63 425.139 130.561 422.167 125.664V125.664ZM343.656 57.0717C343.054 56.8144 342.448 56.557 341.842 56.3124C335.453 53.6986 328.923 51.5262 322.291 49.8075L300.041 76.8311L299.606 77.3499L299.892 77.6916H379.081C368.052 69.291 356.16 62.3693 343.656 57.0717V57.0717ZM381.406 79.4929H298.783L297.16 81.1339V140.863H311.395H412.925V111.925C403.744 99.6359 393.148 88.7325 381.406 79.4929V79.4929Z"
              fill="#2B2E4A"/>
        <path opacity="0.1"
              d="M67.8013 110.452V140.863H29.2472C29.2472 140.686 29.2701 140.505 29.2853 140.328C29.3196 139.843 29.3539 139.362 29.392 138.877C29.4301 138.311 29.4797 137.746 29.5292 137.189C29.5788 136.632 29.6283 135.957 29.6893 135.346C29.7503 134.734 29.7998 134.114 29.8608 133.502C29.9218 132.891 29.9828 132.279 30.0514 131.671C30.12 131.064 30.1809 130.448 30.2572 129.841C30.3143 129.339 30.3715 128.832 30.4363 128.326C30.5239 127.613 30.6154 126.9 30.7107 126.192C30.7107 126.082 30.7412 125.976 30.7564 125.871C31.453 120.683 32.3995 115.541 33.592 110.465L67.8013 110.452Z"
              fill="#2B2E4A"/>
        <path opacity="0.1"
              d="M29.1252 142.669H67.8013V201.023H31.9531C31.8616 201.626 31.7702 202.225 31.6673 202.829H67.8013V249.882C67.7403 249.882 67.6793 249.831 67.6222 249.806C66.6058 249.359 65.5895 248.885 64.5732 248.384C64.356 248.274 64.1425 248.161 63.9215 248.055C62.9052 247.524 61.8888 246.961 60.8725 246.368C60.5181 246.161 60.1636 245.946 59.8168 245.726C54.1746 242.242 49.0465 237.823 44.6101 232.624C44.4767 232.485 44.3548 232.333 44.229 232.202C43.6116 231.46 43.0056 230.709 42.4187 229.941C42.1976 229.658 41.9842 229.371 41.7669 229.097C41.0733 228.161 40.4025 227.19 39.7546 226.216C39.6555 226.068 39.5641 225.925 39.4688 225.794C36.8147 221.729 34.6136 217.324 32.9135 212.675C32.8602 212.535 32.8106 212.384 32.7611 212.253C32.2351 210.776 31.7587 209.279 31.3471 207.752C31.1718 207.115 31.0003 206.486 30.8555 205.824C30.8021 205.634 30.7602 205.44 30.7145 205.25C28.5726 195.906 28.3248 186.195 28.3248 176.531C28.3248 175.406 28.3248 174.281 28.3248 173.156C28.3553 169.21 28.3972 165.269 28.4506 161.332C28.4709 160.319 28.49 159.302 28.5078 158.282C28.5611 155.697 28.6373 153.107 28.7364 150.511C28.7593 149.794 28.7898 149.073 28.8241 148.36C28.8393 147.946 28.8584 147.533 28.8813 147.119C28.9499 145.626 29.0312 144.143 29.1252 142.669Z"
              fill="#2B2E4A"/>
        <path opacity="0.1" d="M106.119 88.2843V140.863H77.0359V88.2843H81.1825V70.4824H98.2034V88.2843H106.119Z"
              fill="#2B2E4A"/>
        <path opacity="0.1" d="M106.115 142.665H77.0359V201.019H106.115V142.665Z" fill="#2B2E4A"/>
        <path opacity="0.1"
              d="M77.0397 202.829H106.119V251.341C102.689 252.434 99.193 253.256 95.6575 253.801C95.3678 253.847 95.082 253.885 94.7923 253.919C94.3655 253.974 93.9424 254.024 93.5194 254.066L92.2426 254.18H92.1131L91.549 254.214H91.3546C91.1259 254.214 90.9011 254.244 90.6724 254.248H90.6534C90.3256 254.248 90.0016 254.273 89.6739 254.282H89.2546C88.9307 254.282 88.6067 254.282 88.2752 254.282H87.5587H86.9755C86.7278 254.282 86.4839 254.282 86.2362 254.248C85.8449 254.231 85.4485 254.206 85.0471 254.172L84.3115 254.113C84.0066 254.087 83.7017 254.054 83.4006 254.02C82.7604 253.958 82.1252 253.878 81.495 253.78L80.7328 253.661L80.3517 253.602C79.7152 253.497 79.0825 253.379 78.4461 253.244C77.9735 253.151 77.5085 253.046 77.0397 252.936V202.829Z"
              fill="#2B2E4A"/>
        <path opacity="0.1" d="M287.917 82.0747H263.937V140.859H287.917V82.0747Z" fill="#2B2E4A"/>
        <path opacity="0.1" d="M287.921 142.665V201.023H168.894V175.852H232.293V190.701H263.937V142.665H287.921Z"
              fill="#2B2E4A"/>
        <path opacity="0.1"
              d="M288.299 265.401C288.173 265.401 288.047 265.401 287.917 265.376V303.659C283.621 303.268 279.34 302.721 275.074 302.018C255.859 298.917 237.125 292.884 219.407 284.089C214.293 281.536 209.282 278.753 204.376 275.741C196.182 270.714 188.332 265.031 180.887 258.736C179.012 257.15 177.165 255.529 175.346 253.872C174.084 252.717 172.834 251.535 171.561 250.392C170.685 249.603 169.797 248.823 168.894 248.08V202.829H263.625C263.556 202.559 263.495 202.293 263.427 202.023C263.499 202.293 263.568 202.559 263.629 202.829H287.921V265.372C288.047 265.376 288.173 265.389 288.299 265.401Z"
              fill="#2B2E4A"/>
        <path opacity="0.1"
              d="M350.463 77.696H334.837V72.3216H341.838V56.3125C342.446 56.56 343.05 56.8131 343.652 57.0718V72.3216H350.459L350.463 77.696Z"
              fill="#2B2E4A"/>
        <path opacity="0.1"
              d="M388.114 140.863H311.395C311.402 140.865 311.41 140.865 311.417 140.863H311.383H297.16V82.079H301.192V125.529H319.615V99.7966H334.841V79.493H350.467V99.8092H365.685V125.542H388.118L388.114 140.863Z"
              fill="#2B2E4A"/>
        <path opacity="0.1"
              d="M297.16 142.669V201.023H388.118V142.669H297.16ZM412.795 269.709L412.925 223.516H388.118V202.846H297.16V304.313C304.616 304.656 312.084 304.556 319.531 304.013H319.661C323.218 303.76 326.759 303.4 330.283 302.933H330.363C349.169 300.51 367.558 295.073 384.951 286.793"
              fill="#2B2E4A"/>
        <path opacity="0.1"
              d="M423.768 202.829H444.985C444.802 214.678 442.652 226.317 437.945 237.066C434.035 245.996 428.596 253.805 422.167 260.626V223.504H423.768V202.829Z"
              fill="#2B2E4A"/>
        <path opacity="0.1" d="M445 201.023H423.768V152.253H435.259C441.2 167.621 444.981 184.495 445 201.023Z"
              fill="#2B2E4A"/>
        <path opacity="0.1" d="M287.921 98.4171H275.074V116.848H287.921V98.4171Z" fill="#2B2E4A"/>
        <path opacity="0.1" d="M287.921 136.62H275.074V140.863H287.921V136.62Z" fill="#2B2E4A"/>
        <path opacity="0.1" d="M287.921 142.665H275.074V155.046H287.921V142.665Z" fill="#2B2E4A"/>
        <path opacity="0.1" d="M287.921 174.822H275.074V193.253H287.921V174.822Z" fill="#2B2E4A"/>
        <path opacity="0.1" d="M287.921 213.025H275.074V231.455H287.921V213.025Z" fill="#2B2E4A"/>
        <path opacity="0.1"
              d="M287.921 265.372C288.047 265.372 288.173 265.372 288.302 265.401C288.177 265.401 288.051 265.401 287.921 265.376V269.658H275.074V251.227H287.921V265.372Z"
              fill="#2B2E4A"/>
        <path opacity="0.1" d="M287.921 289.426V303.659C283.622 303.268 279.34 302.721 275.074 302.018V289.426H287.921Z"
              fill="#2B2E4A"/>
        <path opacity="0.1" d="M223.954 199.669H168.894V201.023H223.954V199.669Z" fill="#2B2E4A"/>
        <path opacity="0.1" d="M223.954 202.825H168.894V208.013H223.954V202.825Z" fill="#2B2E4A"/>
        <path opacity="0.1" d="M223.954 225.022H168.894V233.366H223.954V225.022Z" fill="#2B2E4A"/>
        <path opacity="0.1"
              d="M223.954 250.375V258.719H180.887C179.012 257.139 177.165 255.516 175.346 253.851C174.081 252.7 172.831 251.518 171.561 250.375H223.954Z"
              fill="#2B2E4A"/>
        <path opacity="0.1"
              d="M223.954 275.724V284.089H219.407C214.293 281.536 209.282 278.753 204.376 275.741L223.954 275.724Z"
              fill="#2B2E4A"/>
        <path opacity="0.1" d="M330.37 148.322H319.531V160.319H330.37V148.322Z" fill="#2B2E4A"/>
        <path opacity="0.1" d="M95.684 92.4227H84.845V104.42H95.684V92.4227Z" fill="#2B2E4A"/>
        <path opacity="0.1" d="M95.684 120.29H84.845V132.287H95.684V120.29Z" fill="#2B2E4A"/>
        <path opacity="0.1" d="M95.684 148.157H84.845V160.155H95.684V148.157Z" fill="#2B2E4A"/>
        <path opacity="0.1" d="M95.684 176.02H84.845V188.018H95.684V176.02Z" fill="#2B2E4A"/>
        <path opacity="0.1" d="M95.684 203.888H84.845V215.885H95.684V203.888Z" fill="#2B2E4A"/>
        <path opacity="0.1" d="M95.684 231.755H84.845V243.752H95.684V231.755Z" fill="#2B2E4A"/>
        <path opacity="0.1" d="M371.749 148.322H360.91V160.319H371.749V148.322Z" fill="#2B2E4A"/>
        <path opacity="0.1" d="M330.37 177.914H319.531V189.912H330.37V177.914Z" fill="#2B2E4A"/>
        <path opacity="0.1" d="M371.749 177.914H360.91V189.912H371.749V177.914Z" fill="#2B2E4A"/>
        <path opacity="0.1" d="M330.37 207.503H319.531V219.5H330.37V207.503Z" fill="#2B2E4A"/>
        <path opacity="0.1" d="M371.749 207.503H360.91V219.5H371.749V207.503Z" fill="#2B2E4A"/>
        <path opacity="0.1" d="M330.37 237.095H319.531V249.093H330.37V237.095Z" fill="#2B2E4A"/>
        <path opacity="0.1" d="M371.749 237.095H360.91V249.093H371.749V237.095Z" fill="#2B2E4A"/>
        <path opacity="0.1" d="M330.37 266.688H319.531V278.685H330.37V266.688Z" fill="#2B2E4A"/>
        <path opacity="0.1" d="M371.749 266.688H360.91V278.685H371.749V266.688Z" fill="#2B2E4A"/>
        <path opacity="0.1" d="M319.531 304.013V296.276H330.367V302.912L319.531 304.013Z" fill="#2B2E4A"/>
        <path opacity="0.1"
              d="M30.7106 125.858V132.722H67.8013V125.858H30.7106ZM34.4037 132.292H31.3547V126.293H34.4037V132.292ZM38.0967 132.292H35.0478V126.293H38.0967V132.292ZM41.7822 132.292H38.7332V126.293H41.7822V132.292ZM45.4752 132.292H42.4263V126.293H45.4752V132.292ZM49.1645 132.292H46.1155V126.293H49.1645V132.292ZM52.8575 132.292H49.8086V126.293H52.8575V132.292ZM56.5506 132.292H53.5016V126.293H56.5506V132.292ZM60.2398 132.292H57.1909V126.293H60.2398V132.292ZM63.9291 132.292H60.8801V126.293H63.9291V132.292ZM67.6221 132.292H64.5732V126.293H67.6221V132.292Z"
              fill="#2B2E4A"/>
        <path opacity="0.1"
              d="M30.7106 145.837V152.701H67.8013V145.837H30.7106ZM34.4037 152.27H31.3547V146.272H34.4037V152.27ZM38.0967 152.27H35.0478V146.272H38.0967V152.27ZM41.7822 152.27H38.7332V146.272H41.7822V152.27ZM45.4752 152.27H42.4263V146.272H45.4752V152.27ZM49.1645 152.27H46.1155V146.272H49.1645V152.27ZM52.8575 152.27H49.8086V146.272H52.8575V152.27ZM56.5506 152.27H53.5016V146.272H56.5506V152.27ZM60.2398 152.27H57.1909V146.272H60.2398V152.27ZM63.9291 152.27H60.8801V146.272H63.9291V152.27ZM67.6221 152.27H64.5732V146.272H67.6221V152.27Z"
              fill="#2B2E4A"/>
        <path opacity="0.1"
              d="M30.7106 165.82V172.679H67.8013V165.82H30.7106ZM34.4037 172.245H31.3547V166.246H34.4037V172.245ZM38.0967 172.245H35.0478V166.246H38.0967V172.245ZM41.7822 172.245H38.7332V166.246H41.7822V172.245ZM45.4752 172.245H42.4263V166.246H45.4752V172.245ZM49.1645 172.245H46.1155V166.246H49.1645V172.245ZM52.8575 172.245H49.8086V166.246H52.8575V172.245ZM56.5506 172.245H53.5016V166.246H56.5506V172.245ZM60.2398 172.245H57.1909V166.246H60.2398V172.245ZM63.9291 172.245H60.8801V166.246H63.9291V172.245ZM67.6221 172.245H64.5732V166.246H67.6221V172.245Z"
              fill="#2B2E4A"/>
        <path opacity="0.1"
              d="M30.7106 185.799V192.658H67.8013V185.799H30.7106ZM34.4037 192.228H31.3547V186.221H34.4037V192.228ZM38.0967 192.228H35.0478V186.221H38.0967V192.228ZM41.7822 192.228H38.7332V186.221H41.7822V192.228ZM45.4752 192.228H42.4263V186.221H45.4752V192.228ZM49.1645 192.228H46.1155V186.221H49.1645V192.228ZM52.8575 192.228H49.8086V186.221H52.8575V192.228ZM56.5506 192.228H53.5016V186.221H56.5506V192.228ZM60.2398 192.228H57.1909V186.221H60.2398V192.228ZM63.9291 192.228H60.8801V186.221H63.9291V192.228ZM67.6221 192.228H64.5732V186.221H67.6221V192.228Z"
              fill="#2B2E4A"/>
        <path opacity="0.1"
              d="M30.8898 205.769C31.0347 206.419 31.2062 207.06 31.3815 207.697V206.203H34.4304V212.198H32.7954C32.8412 212.341 32.8907 212.489 32.9441 212.62H67.8166V205.769H30.8898ZM38.1311 212.198H35.0822V206.203H38.1311V212.198ZM41.8166 212.198H38.7676V206.203H41.8166V212.198ZM45.5096 212.198H42.4606V206.203H45.5096V212.198ZM49.1989 212.198H46.1499V206.203H49.1989V212.198ZM52.8919 212.198H49.8429V206.203H52.8919V212.198ZM56.585 212.198H53.536V206.203H56.585V212.198ZM60.2742 212.198H57.2253V206.203H60.2742V212.198ZM63.9635 212.198H60.9145V206.203H63.9635V212.198ZM67.6565 212.198H64.6076V206.203H67.6565V212.198Z"
              fill="#2B2E4A"/>
        <path opacity="0.1"
              d="M39.4802 225.748C39.5793 225.883 39.6708 226.035 39.7661 226.17H41.7822V229.051L42.4339 229.895V226.153H45.4829V232.202H44.229C44.3509 232.341 44.4691 232.489 44.6101 232.624H67.7937V225.748H39.4802ZM49.1835 232.202H46.1346V226.178H49.1835V232.202ZM52.8766 232.202H49.8276V226.178H52.8766V232.202ZM56.5697 232.202H53.5207V226.178H56.5697V232.202ZM60.2589 232.202H57.2099V226.178H60.2589V232.202ZM63.9482 232.202H60.8992V226.178H63.9482V232.202ZM67.6412 232.202H64.5922V226.178H67.6412V232.202Z"
              fill="#2B2E4A"/>
        <path opacity="0.1"
              d="M59.8282 245.726C60.1789 245.946 60.5333 246.148 60.8878 246.363V246.153H63.9367V248.055C64.1578 248.161 64.3674 248.274 64.5846 248.384V246.153H67.6336V249.806C67.6916 249.835 67.7515 249.859 67.8127 249.877V245.726H59.8282Z"
              fill="#2B2E4A"/>
        <path opacity="0.1"
              d="M287.917 265.372H288.299H287.917ZM263.423 202.023C263.495 202.293 263.56 202.563 263.625 202.829C263.568 202.563 263.499 202.293 263.423 202.023ZM81.1977 77.696V79.493H98.2223V77.6875L81.1977 77.696ZM287.921 265.372H288.302H287.921ZM263.423 202.023C263.495 202.293 263.56 202.563 263.625 202.829C263.568 202.563 263.499 202.293 263.423 202.023ZM287.917 265.372H288.299H287.917ZM263.423 202.023C263.495 202.293 263.56 202.563 263.625 202.829C263.568 202.563 263.499 202.293 263.423 202.023Z"
              fill="#2B2E4A"/>
        <path opacity="0.1"
              d="M335.169 364C355.679 364 372.305 361.044 372.305 357.398C372.305 353.752 355.679 350.796 335.169 350.796C314.659 350.796 298.032 353.752 298.032 357.398C298.032 361.044 314.659 364 335.169 364Z"
              fill="#2B2E4A"/>
        <path opacity="0.1"
              d="M167.682 357.398C188.191 357.398 204.818 354.442 204.818 350.796C204.818 347.15 188.191 344.194 167.682 344.194C147.172 344.194 130.545 347.15 130.545 350.796C130.545 354.442 147.172 357.398 167.682 357.398Z"
              fill="#2B2E4A"/>
        <path
            d="M210.436 176.227C210.427 176.185 210.407 176.147 210.379 176.117C209.811 175.497 202.569 164.162 202.569 164.162C202.569 164.162 202.188 162.897 201.571 161.251C201.769 160.968 201.917 160.646 202.009 160.302C202.042 160.157 202.067 160.009 202.082 159.859C202.082 159.813 202.112 159.775 202.123 159.729C202.256 159.156 202.243 158.555 202.085 157.991C202.043 158.135 201.991 158.276 201.929 158.412C201.786 157.921 201.594 157.448 201.357 157.003C200.397 155.173 199.025 153.629 198.015 151.844C196.486 149.072 195.878 145.796 196.296 142.58C196.296 142.745 196.296 142.914 196.296 143.078C196.334 142.441 196.411 141.806 196.525 141.18C196.684 140.467 196.897 139.77 197.161 139.096C198.068 136.797 199.536 134.793 200.428 132.486C200.727 131.707 200.954 130.897 201.106 130.068C201.42 128.684 201.535 127.253 201.445 125.829C201.445 126.166 201.396 126.504 201.35 126.837C201.253 123.413 200.004 120.152 197.847 117.696C194.734 114.232 190.263 112.887 185.987 112.178C184.19 111.946 182.474 111.221 180.994 110.069C179.352 108.892 177.229 108.609 175.308 108.866C173.1 109.131 171.049 110.253 169.519 112.034C167.487 114.506 166.607 118.008 164.236 120.092C162.799 121.357 160.978 121.948 159.305 122.808C157.631 123.669 156.05 124.918 155.512 126.765C155.512 126.765 155.512 126.74 155.512 126.727V126.833L155.49 126.9C154.933 129.086 156.008 131.309 156.568 133.49C157.151 135.746 157.189 138.13 157.22 140.463C157.262 143.314 157.3 146.17 157.258 149.026C157.239 150.148 157.205 151.283 157.128 152.401C156.226 152.703 155.35 153.093 154.51 153.565C153.656 154.181 150.463 157.999 150.463 157.999L144.216 184.415L144.3 184.521L144.216 184.879L144.532 184.799C145.417 185.854 148.058 188.857 150.908 190.73L151.175 195.91C151.175 195.91 151.495 201.108 155.814 203.255C155.913 205.056 156.221 212.371 154.792 215.269C153.802 217.386 153.337 219.756 153.443 222.137C153.443 222.137 153.942 226.532 153.374 228.844C153.043 230.389 153.018 231.995 153.302 233.552V233.552C153.302 233.552 153.302 234.062 153.302 234.94C153.302 239.618 153.351 254.611 153.302 256.306C153.23 258.31 153.302 287.945 153.302 287.945C153.302 287.945 152.947 302.756 151.812 306.768C150.676 310.78 150.962 324.064 150.962 324.064C150.962 324.064 150.249 339.887 152.768 343.009C152.768 343.148 152.745 343.292 152.742 343.431C152.742 343.494 152.742 343.566 152.742 343.629C152.711 344.831 152.921 346.109 153.855 346.502C155.76 347.312 158.279 349.742 158.756 350.438C159.232 351.134 162.003 352.867 165.616 352.403C167.879 352.122 170.157 352.006 172.434 352.058V352.058C172.434 352.058 173.86 351.771 173.398 349.809C173.101 348.586 171.988 346.704 171.196 345.468C171.34 345.51 171.481 345.544 171.615 345.574L171.752 345.603H171.859C171.917 345.607 171.976 345.607 172.034 345.603H172.11C172.181 345.61 172.253 345.61 172.324 345.603V345.603C173.28 345.502 176.848 347.341 177.484 348.556C178.121 349.771 180.365 350.695 182.057 350.927C183.064 351.062 185.602 350.834 187.732 350.53C188.805 350.408 189.868 350.193 190.911 349.889C191.414 349.678 191.521 349.003 191.376 348.244C191.205 347.28 190.739 346.41 190.057 345.78C189.44 345.295 188.624 344.017 188.022 342.971L187.862 342.688C188.925 341.566 190.846 337.896 191.429 337.137C192.138 336.213 190.286 302.427 190.286 302.427V285.49L193.125 269.46L195.111 260.976L196.814 248.169C196.814 248.169 199.795 233.21 198.876 231.742C198.876 231.713 198.114 216.311 197.314 212.611C196.967 210.962 197.055 207.25 197.26 203.639C197.475 203.402 197.625 203.103 197.693 202.776C197.76 202.449 197.743 202.107 197.642 201.791C197.585 201.575 197.511 201.364 197.42 201.162C197.42 201.099 197.42 201.032 197.42 200.968C199.067 200.13 200.787 199.482 202.554 199.036C205.393 198.42 204.685 196.801 204.685 196.801C204.685 196.801 205.325 195.413 205.748 194.565C206.171 193.717 205.82 186.233 205.748 185.617C205.721 185.368 205.546 183.993 205.344 182.432C206.255 181.715 207.44 180.825 208.732 179.981C211.19 178.37 210.638 176.67 210.436 176.227ZM173.391 283.178C173.391 283.178 171.26 289.194 172.114 290.733C172.968 292.273 171.973 297.989 171.973 297.989L171.26 306.473C171.26 306.473 169.275 322.208 169.984 325.907C170.54 328.809 170.746 337.478 170.811 341.094C170.762 341.115 170.715 341.14 170.67 341.17L170.574 341.224C170.902 339.803 170.765 336.926 169.137 331.138L169 307.232C169 307.232 168.749 279.618 170.719 276.53C172.69 273.442 173.387 268.198 173.387 268.198C173.387 268.198 172.96 275.762 172.682 277.766C172.404 279.77 173.391 283.178 173.391 283.178ZM169.423 342.6C169.404 342.65 169.381 342.701 169.366 342.747L169.259 342.595C169.314 342.601 169.369 342.603 169.423 342.6V342.6Z"
            fill="url(#paint0_linear_357_4969)"/>
        <path
            d="M191.151 352.074C190.05 352.543 184.077 353.34 182.408 353.116C180.739 352.893 178.528 351.956 177.899 350.733C177.271 349.51 173.745 347.662 172.8 347.78C172.413 347.793 172.026 347.733 171.657 347.603C171.005 347.384 170.368 347.114 169.751 346.793C169.665 346.261 169.679 345.715 169.793 345.19C169.815 345.084 169.843 344.98 169.877 344.878C170.099 344.186 170.559 343.619 171.157 343.3L171.295 343.228C171.559 343.102 171.835 343.008 172.118 342.95C175.113 342.313 187.473 343.591 187.473 343.591C187.473 343.591 187.82 344.279 188.296 345.131C188.891 346.185 189.699 347.472 190.309 347.957C190.984 348.596 191.443 349.471 191.608 350.438C191.753 351.184 191.646 351.868 191.151 352.074Z"
            fill="white"/>
        <path opacity="0.1"
              d="M191.151 352.074C190.049 352.543 184.081 353.34 182.412 353.116C180.743 352.893 178.532 351.952 177.899 350.733C177.267 349.514 173.749 347.662 172.804 347.78C171.859 347.898 169.755 346.793 169.755 346.793C169.755 346.793 169.427 345.105 170.38 343.954L172.285 345.451C172.285 345.451 177.385 347.202 178.33 348.826C179.275 350.45 180.998 351.357 183.487 351.522C185.346 351.657 189.619 350.855 191.62 350.454C191.753 351.184 191.65 351.868 191.151 352.074Z"
              fill="#DC2626"/>
        <path
            d="M172.907 354.226C170.659 354.177 168.41 354.294 166.176 354.576C162.597 355.04 159.865 353.31 159.388 352.597C158.912 351.885 156.446 349.476 154.552 348.632C153.626 348.236 153.409 346.945 153.45 345.738C153.45 345.675 153.45 345.603 153.45 345.54C153.486 344.776 153.588 344.017 153.755 343.275L168.585 342.924L169.869 344.852L170.067 345.148L170.849 346.325C170.849 346.325 171.203 346.839 171.668 347.59C172.453 348.856 173.551 350.724 173.844 351.96C174.313 353.939 172.907 354.226 172.907 354.226Z"
            fill="white"/>
        <path opacity="0.1"
              d="M172.907 354.226C170.659 354.177 168.41 354.294 166.176 354.576C162.601 355.04 159.865 353.31 159.392 352.597C158.92 351.885 156.446 349.455 154.552 348.641C153.626 348.244 153.409 346.953 153.45 345.747C154.51 346.021 156.736 346.721 157.609 347.94C158.752 349.569 160.798 352.306 163.706 352.479C166.054 352.619 171.771 352.154 173.867 351.969C174.317 353.939 172.907 354.226 172.907 354.226Z"
              fill="#DC2626"/>
        <path opacity="0.1"
              d="M171.142 343.283C170.971 344.692 170.441 345.072 170.06 345.156C169.967 345.176 169.871 345.176 169.778 345.156C169.728 345.152 169.678 345.144 169.629 345.131C169.629 345.131 156.313 348.387 153.622 345.751C153.554 345.683 153.49 345.61 153.431 345.532C153.466 344.767 153.569 344.009 153.736 343.266L168.566 342.916L169.85 344.844C170.073 344.152 170.533 343.585 171.131 343.266L171.142 343.283Z"
              fill="#DC2626"/>
        <path opacity="0.1"
              d="M188.292 345.114C187.995 345.477 187.747 345.683 187.591 345.612C186.89 345.299 181.143 344.215 179.317 345.148C177.492 346.08 171.314 345.299 171.314 345.299C171.314 345.299 171.314 344.49 171.279 343.19C171.544 343.064 171.82 342.971 172.103 342.912C175.098 342.275 187.458 343.553 187.458 343.553C187.458 343.553 187.82 344.262 188.292 345.114Z"
              fill="#DC2626"/>
        <path
            d="M196.99 249.692L195.305 262.575L193.346 271.113L190.541 287.253V304.338C190.541 304.338 192.363 338.331 191.662 339.259C190.96 340.187 188.296 345.472 187.595 345.164C186.894 344.857 181.146 343.768 179.321 344.696C177.495 345.624 171.317 344.852 171.317 344.852C171.317 344.852 171.176 331.661 170.475 327.936C169.774 324.211 171.737 308.379 171.737 308.379L172.438 299.845C172.438 299.845 173.421 294.1 172.579 292.547C171.737 290.995 173.84 284.954 173.84 284.954C173.84 284.954 172.861 281.533 173.143 279.516C173.425 277.5 173.84 269.894 173.84 269.894C173.84 269.894 173.143 275.176 171.195 278.276C169.248 281.377 169.496 309.164 169.496 309.164L169.633 333.209C173.143 345.941 169.633 344.696 169.633 344.696C169.633 344.696 156.316 347.957 153.626 345.316C150.935 342.676 151.705 326.055 151.705 326.055C151.705 326.055 151.427 312.707 152.547 308.675C153.668 304.642 154.022 289.738 154.022 289.738C154.022 289.738 153.95 259.934 154.022 257.922C154.075 256.235 154.022 241.128 154.022 236.408C154.022 235.53 154.022 235.011 154.022 235.011L155.63 230.591L174.686 227.95H183.803C183.803 227.95 197.523 231.519 198.941 233.058C198.971 233.084 198.997 233.115 199.017 233.151C199.936 234.64 196.99 249.692 196.99 249.692Z"
            fill="#2B2E4A"/>
        <path opacity="0.1"
              d="M173.852 317.365C173.852 317.365 178.044 328.539 180.022 329.316C182 330.092 173.852 317.365 173.852 317.365Z"
              fill="#DC2626"/>
        <path opacity="0.1"
              d="M175.403 333.817C175.403 333.817 189.558 334.593 189.417 336.301C189.276 338.01 175.403 333.817 175.403 333.817Z"
              fill="#DC2626"/>
        <path opacity="0.1"
              d="M156.465 329.349C157.025 329.936 167.262 331.037 166.42 332.108C165.578 333.18 157.307 335.264 157.307 335.264L156.465 329.349Z"
              fill="#DC2626"/>
        <path opacity="0.1"
              d="M154.785 310.071C154.785 310.535 156.888 324.971 157.452 325.591C158.016 326.211 162.639 326.831 162.639 326.831L154.785 310.071Z"
              fill="#DC2626"/>
        <path
            d="M170.048 112.756C168.04 115.24 167.171 118.763 164.831 120.864C163.409 122.129 161.61 122.732 159.956 123.593C158.302 124.454 156.663 125.766 156.172 127.715C155.623 129.908 156.682 132.148 157.239 134.342C157.814 136.611 157.849 138.982 157.883 141.357C157.921 144.23 157.963 147.103 157.917 149.975C157.849 154.451 157.513 159.134 155.368 162.926C163.116 165.656 171.356 166.027 179.481 166.377C181.043 166.5 182.611 166.456 184.165 166.246C185.512 165.949 186.843 165.576 188.155 165.128C190.749 164.369 193.422 163.99 196.106 164.002C197.276 164.002 198.468 164.082 199.597 163.745C200.725 163.407 201.811 162.542 202.116 161.294C202.386 160.171 201.99 158.978 201.472 157.969C200.527 156.13 199.185 154.595 198.171 152.781C197.136 150.865 196.522 148.706 196.379 146.48C196.235 144.253 196.566 142.02 197.344 139.961C198.244 137.645 199.692 135.628 200.576 133.308C201.482 130.817 201.723 128.091 201.27 125.453C200.817 122.815 199.69 120.376 198.023 118.425C194.947 114.941 190.534 113.591 186.311 112.874C184.533 112.641 182.836 111.916 181.379 110.765C179.759 109.583 177.659 109.297 175.761 109.558C173.572 109.83 171.544 110.965 170.048 112.756Z"
            fill="#3F3D56"/>
        <g opacity="0.1">
            <path opacity="0.1"
                  d="M197.462 137.527C196.685 139.559 196.352 141.766 196.49 143.968C196.576 142.394 196.905 140.847 197.462 139.395C198.358 137.079 199.806 135.063 200.69 132.743C201.413 130.806 201.717 128.708 201.578 126.618C201.5 128.083 201.2 129.523 200.69 130.878C199.806 133.199 198.358 135.211 197.462 137.527Z"
                  fill="#DC2626"/>
            <path opacity="0.1"
                  d="M157.997 140.783C158.02 142.437 158.043 144.095 158.047 145.748C158.047 143.471 158.028 141.197 157.997 138.923C157.967 136.565 157.929 134.177 157.353 131.903C156.972 130.461 156.408 128.997 156.21 127.542C155.871 129.609 156.835 131.705 157.353 133.768C157.929 136.021 157.967 138.425 157.997 140.783Z"
                  fill="#DC2626"/>
            <path opacity="0.1"
                  d="M199.726 161.332C198.583 161.673 197.409 161.597 196.239 161.589C193.558 161.57 190.886 161.942 188.292 162.694C186.98 163.14 185.648 163.512 184.302 163.808C182.747 164.022 181.177 164.067 179.614 163.943C171.763 163.601 163.802 163.234 156.282 160.749C156.059 161.301 155.804 161.836 155.52 162.352C163.268 165.078 171.508 165.453 179.63 165.803C181.192 165.927 182.762 165.882 184.317 165.668C185.659 165.375 186.986 165.005 188.292 164.559C190.881 163.803 193.547 163.428 196.224 163.441C197.394 163.441 198.583 163.521 199.711 163.179C200.839 162.838 201.925 161.981 202.23 160.733C202.359 160.154 202.345 159.548 202.192 158.978C201.853 160.159 200.805 160.981 199.726 161.332Z"
                  fill="#DC2626"/>
        </g>
        <path
            d="M188.437 156.333C188.155 157.033 186.966 163.082 186.684 163.702C186.402 164.322 184.863 174.249 184.721 174.805C184.58 175.362 174.572 172.477 174.572 172.477L168.547 166.887L162.354 160.066C162.354 160.066 162.171 153.911 166.733 151.937C167.043 151.802 167.361 151.692 167.685 151.608C173.219 150.136 172.663 131.511 172.663 131.511L184.02 136.94C184.02 136.94 181.916 147.807 181.989 149.904C182.008 150.608 182.507 151.047 183.159 151.313C184.167 151.63 185.216 151.756 186.261 151.684C186.261 151.684 188.719 155.637 188.437 156.333Z"
            fill="#FBBEBE"/>
        <path
            d="M208.77 176.742L210.382 177.21C210.382 177.21 211.575 179.218 208.77 181.087C206.989 182.284 205.279 183.607 203.652 185.048L195.362 187.841L193.766 182.293L201.479 175.814L208.77 176.742Z"
            fill="#2B2E4A"/>
        <path opacity="0.1"
              d="M208.77 176.742L210.382 177.21C210.382 177.21 211.575 179.218 208.77 181.087C206.989 182.284 205.279 183.607 203.652 185.048L195.362 187.841L193.766 182.293L201.479 175.814L208.77 176.742Z"
              fill="#DC2626"/>
        <path
            d="M148.275 182.099L145.051 185.592C145.051 185.592 150.867 193.042 155.341 193.506C159.815 193.97 162.7 187.841 162.7 187.841L158.828 181.091L148.275 182.099Z"
            fill="#2B2E4A"/>
        <path opacity="0.1"
              d="M148.275 182.099L145.051 185.592C145.051 185.592 150.867 193.042 155.341 193.506C159.815 193.97 162.7 187.841 162.7 187.841L158.828 181.091L148.275 182.099Z"
              fill="#DC2626"/>
        <path opacity="0.1"
              d="M178.902 143.681C185.096 143.681 190.118 138.123 190.118 131.266C190.118 124.41 185.096 118.851 178.902 118.851C172.707 118.851 167.685 124.41 167.685 131.266C167.685 138.123 172.707 143.681 178.902 143.681Z"
              fill="#DC2626"/>
        <path
            d="M178.902 142.749C185.096 142.749 190.118 137.191 190.118 130.334C190.118 123.478 185.096 117.919 178.902 117.919C172.707 117.919 167.685 123.478 167.685 130.334C167.685 137.191 172.707 142.749 178.902 142.749Z"
            fill="#FBBEBE"/>
        <path opacity="0.1"
              d="M199.025 234.56C196.471 234.884 193.955 235.507 191.52 236.421C187.328 237.964 154.476 236.446 154.018 236.421C154.018 235.543 154.018 235.024 154.018 235.024L155.627 230.603L174.683 227.962H183.799C183.799 227.962 197.519 231.531 198.937 233.071C198.994 233.999 199.025 234.56 199.025 234.56Z"
              fill="#DC2626"/>
        <path opacity="0.1"
              d="M188.437 156.333C188.155 157.033 186.966 163.082 186.684 163.702C186.402 164.322 184.863 174.249 184.721 174.805C184.58 175.362 174.572 172.477 174.572 172.477L168.547 166.887L162.354 160.066C162.354 160.066 162.171 153.911 166.733 151.937L178.06 166.352L183.159 151.313C184.167 151.63 185.216 151.756 186.261 151.684C186.261 151.684 188.719 155.637 188.437 156.333Z"
              fill="#DC2626"/>
        <path
            d="M178.059 166.816L166.466 152.051C165.787 151.571 165.012 151.286 164.209 151.221C163.406 151.155 162.601 151.311 161.866 151.675C159.27 152.92 156.046 153.928 155.204 154.548C154.361 155.168 151.206 159.007 151.206 159.007L160.604 186.221L156.465 204.145C156.465 204.145 157.098 213.303 155.486 216.64C154.504 218.774 154.044 221.154 154.152 223.546C154.152 223.546 154.643 227.971 154.083 230.295C153.756 231.849 153.731 233.463 154.011 235.028C154.011 235.028 187.317 236.581 191.521 235.028C193.955 234.113 196.471 233.489 199.025 233.168C199.025 233.168 198.263 217.644 197.5 213.919C196.738 210.194 198.133 195.995 198.133 195.995L197.222 180.783L202.687 165.175C202.687 165.175 199.726 155.168 196.639 154.16C196.639 154.16 191.033 152.684 189.84 151.988C188.647 151.292 185.141 150.667 185.141 150.667L183.3 151.351L178.059 166.816Z"
            fill="#2B2E4A"/>
        <path opacity="0.1"
              d="M194.235 180.269L169.839 178.433C169.221 178.387 168.687 178.903 168.645 179.586L166.026 222.221C165.984 222.904 166.45 223.496 167.067 223.543L191.464 225.379C192.081 225.425 192.616 224.909 192.658 224.226L195.277 181.591C195.319 180.907 194.852 180.316 194.235 180.269Z"
              fill="#DC2626"/>
        <path
            d="M195.075 179.343L170.679 177.507C170.061 177.461 169.527 177.977 169.485 178.66L166.866 221.295C166.824 221.979 167.29 222.57 167.908 222.617L192.304 224.453C192.921 224.499 193.456 223.983 193.498 223.3L196.117 180.665C196.159 179.982 195.693 179.39 195.075 179.343Z"
            fill="#3F3D56"/>
        <path d="M194.27 182.685L171.068 180.939L168.683 219.752L191.886 221.499L194.27 182.685Z" fill="white"/>
        <path opacity="0.1" d="M192.19 192.592L173.236 191.124L172.867 196.971L191.82 198.439L192.19 192.592Z"
              fill="#DC2626"/>
        <path opacity="0.1" d="M191.504 215.827L188.496 215.601L188.309 218.648L191.317 218.874L191.504 215.827Z"
              fill="#DC2626"/>
        <path opacity="0.1" d="M188.537 208.473L173.141 207.314L172.954 210.361L188.35 211.52L188.537 208.473Z"
              fill="#DC2626"/>
        <path d="M191.398 181.234L175.367 180.028L175.079 184.712L191.11 185.919L191.398 181.234Z" fill="#3F3D56"/>
        <path opacity="0.1" d="M191.398 181.234L175.367 180.028L175.079 184.712L191.11 185.919L191.398 181.234Z"
              fill="#DC2626"/>
        <path opacity="0.1"
              d="M179.462 233.704C179.462 233.704 179.321 256.678 173.852 269.869C173.852 269.869 180.445 252.484 180.445 251.788C180.445 251.092 184.089 243.794 183.113 241.622C182.137 239.449 179.462 233.704 179.462 233.704Z"
              fill="#DC2626"/>
        <path opacity="0.1"
              d="M179.759 127.229C179.55 125.196 180 123.146 181.028 121.446C180.906 123.15 181.342 124.846 182.255 126.225C183.169 127.604 184.5 128.572 186.006 128.955C185.877 128.831 185.786 128.668 185.743 128.485C185.7 128.303 185.708 128.111 185.766 127.934C186.547 128.913 187.145 130.073 188.03 130.933C188.914 131.794 190.24 132.308 191.281 131.697C192.695 130.853 192.71 128.63 192.344 126.9C191.559 123.217 189.948 119.812 187.66 117C187.089 116.149 186.348 115.457 185.495 114.977C184.642 114.497 183.7 114.242 182.743 114.232C180.579 114.047 178.33 114.258 176.39 115.333C175.299 115.993 174.276 116.783 173.341 117.691L168.006 122.509C167.492 122.918 167.053 123.431 166.71 124.019C166.481 124.511 166.343 125.049 166.306 125.601C166.169 127.179 166.433 128.767 167.067 130.188C167.702 131.609 168.681 132.807 169.896 133.646C169.87 132.399 170.18 131.171 170.786 130.12C171.392 129.068 172.267 128.24 173.299 127.74C173.461 127.889 173.592 128.076 173.683 128.286C173.775 128.496 173.824 128.726 173.829 128.959L174.953 126.74C175.121 126.336 175.384 125.991 175.716 125.74C176.409 125.318 177.274 125.816 177.865 126.411C178.456 127.006 179.031 127.748 179.824 127.841L179.855 124.538"
              fill="#DC2626"/>
        <path
            d="M179.759 126.765C179.549 124.731 179.999 122.679 181.028 120.978C180.685 124.352 182.984 127.837 186.01 128.486C185.881 128.364 185.789 128.201 185.746 128.02C185.703 127.838 185.712 127.646 185.77 127.47C186.551 128.449 187.149 129.604 188.033 130.469C188.918 131.334 190.244 131.844 191.284 131.229C192.698 130.385 192.714 128.162 192.348 126.436C191.563 122.753 189.952 119.348 187.664 116.536C186.954 115.578 186.059 114.808 185.045 114.283C184.312 113.982 183.54 113.809 182.759 113.768C180.594 113.583 178.345 113.789 176.405 114.865C175.314 115.527 174.292 116.319 173.356 117.227L168.021 122.045C167.507 122.453 167.067 122.966 166.725 123.555C166.495 124.047 166.358 124.585 166.321 125.137C166.185 126.714 166.449 128.302 167.083 129.722C167.717 131.143 168.697 132.339 169.911 133.177C169.886 131.931 170.197 130.704 170.803 129.652C171.408 128.601 172.283 127.772 173.315 127.272C173.476 127.422 173.606 127.608 173.698 127.818C173.789 128.028 173.839 128.258 173.844 128.491L174.965 126.28C175.131 125.876 175.395 125.53 175.727 125.28C176.421 124.859 177.286 125.356 177.877 125.951C178.467 126.546 179.043 127.284 179.836 127.381L179.866 124.074"
            fill="#3F3D56"/>
        <path
            d="M185.072 205.073C184.093 204.525 167.895 207.321 167.895 207.321C167.895 207.321 165.227 206.478 158.779 205.305C152.33 204.132 151.918 197.155 151.918 197.155L151.213 183.188L153.389 181.078L162.712 187.828C162.712 187.828 162.856 191.241 162.712 191.856C162.62 192.278 162.376 192.78 162.399 193.122C162.406 193.215 162.441 193.302 162.497 193.371C162.554 193.439 162.629 193.485 162.712 193.502C163.344 193.679 171.965 195.223 171.965 195.223C171.965 195.223 191.947 193.708 196.929 201.158C197.323 201.705 197.622 202.329 197.809 202.997C199.044 208.089 185.96 205.558 185.072 205.073Z"
            fill="#FBBEBE"/>
        <path opacity="0.1"
              d="M197.821 203.027C197.058 203.402 196.586 203.672 196.586 203.672C196.586 203.672 189.436 203.44 185.419 201.829C181.402 200.218 176.52 200.504 176.52 200.504C176.52 200.504 159.781 197.315 162.376 193.152C162.383 193.244 162.418 193.331 162.474 193.4C162.531 193.469 162.606 193.515 162.689 193.531C163.322 193.708 171.943 195.252 171.943 195.252C171.943 195.252 191.925 193.738 196.906 201.188C197.313 201.732 197.623 202.356 197.821 203.027V203.027Z"
              fill="#DC2626"/>
        <path
            d="M204.772 178.45C204.772 178.45 205.755 186.132 205.824 186.756C205.893 187.381 206.247 194.902 205.824 195.759C205.401 196.615 204.772 198.007 204.772 198.007C204.772 198.007 205.473 199.635 202.668 200.26C199.863 200.884 196.57 202.74 196.57 202.74C196.57 202.74 189.417 202.508 185.423 200.88C181.429 199.251 176.52 199.559 176.52 199.559C176.52 199.559 155.272 195.522 164.389 190.595C173.505 185.668 179.954 192.342 179.954 192.342L190.118 191.646C190.118 191.646 193.906 189.081 194.958 189.317C195.701 189.422 196.455 189.287 197.131 188.929L197.203 180.779L204.772 178.45Z"
            fill="#FBBEBE"/>
        <path opacity="0.1"
              d="M153.229 159.594L151.194 159.475L145.028 186.052C145.028 186.052 151.686 184.187 154.556 186.052C157.426 187.916 162.689 188.3 162.689 188.3L160.726 167.115L153.229 159.594Z"
              fill="#DC2626"/>
        <path
            d="M153.229 159.125L151.194 159.007L145.028 185.584C145.028 185.584 151.686 183.719 154.556 185.584C157.426 187.448 162.689 187.832 162.689 187.832L160.726 166.647L153.229 159.125Z"
            fill="#2B2E4A"/>
        <path opacity="0.1"
              d="M199.867 164.947L202.668 165.647C202.668 165.647 209.822 177.037 210.382 177.674C210.942 178.311 207.714 180.627 206.384 180.627C205.054 180.627 198.533 181.471 196.639 183.42C194.745 185.368 195.534 175.56 195.534 175.337C195.534 175.113 197.885 168.925 197.885 168.925L199.867 164.947Z"
              fill="#DC2626"/>
        <path
            d="M199.867 164.483L202.668 165.179C202.668 165.179 209.822 176.59 210.382 177.21C210.942 177.83 207.714 180.163 206.384 180.163C205.054 180.163 198.533 181.007 196.639 182.955C194.745 184.904 195.534 175.096 195.534 174.873C195.534 174.649 197.901 168.44 197.901 168.44L199.867 164.483Z"
            fill="#2B2E4A"/>
        <g opacity="0.1">
            <path opacity="0.1"
                  d="M181.009 121.016C180.993 120.692 180.999 120.368 181.028 120.045C180.448 121.009 180.049 122.092 179.855 123.23V124.209C179.855 124.209 179.855 124.188 179.855 124.175V124.407C179.855 125.091 179.855 125.778 179.836 126.462H179.782V126.778C179.782 126.668 179.782 126.563 179.763 126.453C179.001 126.318 178.456 125.609 177.888 125.044C177.32 124.479 176.432 123.939 175.738 124.373C175.406 124.623 175.142 124.969 174.976 125.373L173.844 127.584C173.839 127.351 173.789 127.122 173.698 126.913C173.607 126.703 173.476 126.518 173.315 126.369C172.282 126.869 171.407 127.697 170.801 128.749C170.195 129.8 169.885 131.028 169.911 132.275C168.87 131.552 167.999 130.566 167.37 129.398C166.741 128.229 166.372 126.912 166.294 125.555C166.228 127.07 166.528 128.578 167.164 129.923C167.8 131.267 168.748 132.399 169.911 133.203C169.886 131.956 170.197 130.729 170.803 129.678C171.408 128.626 172.283 127.798 173.315 127.297C173.476 127.447 173.606 127.633 173.698 127.844C173.789 128.054 173.839 128.283 173.844 128.516L174.965 126.306C175.131 125.901 175.395 125.555 175.727 125.306C176.421 124.884 177.286 125.382 177.877 125.976C178.467 126.571 179.043 127.31 179.836 127.407C179.836 126.327 179.846 125.25 179.866 124.175C180.053 123.048 180.442 121.974 181.009 121.016V121.016Z"
                  fill="#DC2626"/>
            <path opacity="0.1"
                  d="M179.721 125.264C179.74 124.977 179.771 124.69 179.809 124.42L179.851 123.256C179.736 123.917 179.693 124.591 179.721 125.264Z"
                  fill="#DC2626"/>
            <path opacity="0.1"
                  d="M191.284 130.296C190.244 130.912 188.918 130.397 188.033 129.537C187.149 128.676 186.551 127.516 185.769 126.538C185.712 126.715 185.704 126.907 185.747 127.089C185.789 127.271 185.881 127.435 186.01 127.558C185.933 127.558 185.861 127.516 185.789 127.495C186.551 128.465 187.157 129.604 188.033 130.448C188.91 131.292 190.244 131.823 191.284 131.207C192.325 130.592 192.622 129.149 192.531 127.744C192.462 128.849 192.104 129.807 191.284 130.296Z"
                  fill="#DC2626"/>
            <path opacity="0.1"
                  d="M185.766 127.487C184.491 127.102 183.353 126.296 182.505 125.175C181.656 124.055 181.137 122.674 181.017 121.218C180.8 124.53 183.056 127.849 186.01 128.486C185.884 128.366 185.793 128.206 185.75 128.028C185.707 127.85 185.712 127.661 185.766 127.487V127.487Z"
                  fill="#DC2626"/>
        </g>
        <path
            d="M368.795 196.434C368.795 196.434 367.293 196.202 367.293 193.784C367.293 191.367 366.219 186.841 366.219 186.841C366.219 186.841 365.289 178.965 364.004 177.716C362.72 176.467 361.07 169.136 361.07 169.136C361.07 169.136 360.788 165.158 360.212 164.301C359.637 163.445 358.859 161.348 357.712 158.358C356.565 155.367 351.793 153.316 351.793 153.316C351.793 153.316 343.146 147.765 340.695 145.955C340.471 145.805 340.261 145.63 340.07 145.432C339.643 144.816 337.783 144.804 337.783 144.804C337.589 143.441 337.402 141.88 337.341 140.467C337.341 140.315 337.341 140.163 337.341 140.011C340.074 138.223 342.132 135.405 343.138 132.072C343.184 131.912 343.222 131.747 343.264 131.583C343.431 131.526 343.585 131.43 343.717 131.302C343.848 131.174 343.954 131.017 344.026 130.84C344.243 130.296 344.251 129.663 344.525 129.153C344.845 128.554 345.455 128.233 345.935 127.786C347.147 126.643 347.46 124.724 347.403 122.981C347.365 121.564 347.159 120.138 347.239 118.733C347.239 118.615 347.239 118.497 347.262 118.379C347.285 118.172 347.311 117.957 347.346 117.755C347.532 116.708 347.94 115.721 348.169 114.684C348.397 113.646 348.42 112.477 347.887 111.583C347.105 110.271 345.478 110.01 344.049 109.896C342.429 109.744 341 109.938 339.944 108.449C339.46 107.671 338.914 106.942 338.313 106.272C338.1 106.053 336.026 104.648 336.026 104.559C333.998 103.515 331.696 103.319 329.547 104.007C328.469 104.353 327.459 104.918 326.365 105.2C324.017 105.816 321.311 105.15 319.314 106.639C318.201 107.483 317.534 108.828 316.909 110.132C316.401 111.206 315.885 112.282 315.362 113.359C314.516 115.127 313.662 116.924 313.308 118.881C313.234 119.309 313.186 119.741 313.167 120.176V120.176C313.167 120.332 313.167 120.488 313.167 120.644C313.167 120.712 313.167 120.779 313.167 120.847C313.167 120.99 313.167 121.134 313.19 121.269C313.212 121.404 313.19 121.442 313.216 121.53C313.243 121.619 313.251 121.817 313.273 121.952C313.296 122.087 313.342 122.327 313.388 122.509C313.388 122.589 313.433 122.665 313.456 122.745C313.479 122.825 313.54 123.028 313.59 123.167C313.639 123.306 313.643 123.315 313.674 123.386C313.731 123.534 313.799 123.677 313.868 123.808C313.898 123.863 313.921 123.918 313.952 123.973C314.056 124.17 314.173 124.359 314.302 124.538C315.114 125.664 316.319 126.381 317.207 127.436C317.207 127.478 317.207 127.52 317.207 127.563C317.207 127.677 317.207 127.79 317.207 127.909C317.261 130.261 317.834 132.563 318.875 134.614C319.917 136.665 321.395 138.404 323.183 139.678C323.183 139.838 323.202 140.003 323.209 140.167C323.284 141.418 323.27 142.674 323.167 143.922C323.012 143.72 322.817 143.559 322.598 143.451C322.38 143.343 322.142 143.291 321.902 143.298C321.738 143.289 321.574 143.304 321.414 143.344L321.38 143.314V143.352C320.541 143.58 319.509 144.546 318.521 147.292C318.521 147.292 315.518 151.038 313.231 150.882C310.945 150.726 305.156 154.784 305.156 154.784C305.156 154.784 299.507 158.838 298.295 162.973C297.618 165.317 296.804 167.611 295.86 169.84L288.859 185.752L287.574 198.408C287.574 198.408 288.287 204.023 288.146 204.883C288.005 205.744 291.077 213.464 291.077 213.464C291.077 213.464 301.226 233.198 305.373 234.21L305.67 233.982C305.848 234.082 306.036 234.158 306.23 234.21L307.084 233.548C307.137 234.289 307.114 235.035 307.015 235.771C306.448 237.724 307.233 250.439 308.231 252.932C309.23 255.425 308.875 288.118 308.875 288.118L308.734 290.999C308.734 290.999 308.734 291.092 308.769 291.252L308.734 291.936L308.837 291.995C308.944 292.911 308.909 293.842 308.734 294.745C308.376 296.011 308.231 299.584 308.231 299.584C308.231 299.584 305.373 319.782 306.73 323.84C308.086 327.898 309.234 332.345 309.234 332.345C309.234 332.345 310.663 337.407 309.302 338.25C307.942 339.094 304.088 340.592 304.874 342.697C305.598 344.646 308.346 349.868 308.753 350.632L308.719 351.054L308.159 357.774C308.249 358.661 308.467 359.527 308.803 360.338C309.416 361.806 310.606 363.321 312.877 363.156C313.258 363.127 313.696 363.08 314.127 363.017C318.277 362.397 323.385 360.347 323.385 360.347C323.12 360.161 322.878 359.939 322.664 359.685V359.685C322.46 359.466 322.299 359.203 322.189 358.913C322.08 358.623 322.025 358.312 322.028 357.997C322.089 356.77 320.019 350.944 319.501 349.505L319.383 349.185C319.383 349.185 324.101 343.722 323.316 338.887C323.316 338.887 318.095 335.513 319.813 333.657C321.532 331.8 324.604 326.485 324.604 326.485C324.604 326.485 324.745 306.595 324.604 303.629C324.457 301.567 324.545 299.492 324.867 297.454C324.924 297.15 324.993 296.85 325.065 296.551C327.444 296.948 329.847 297.15 332.253 297.154C333.132 297.154 334.022 297.134 334.921 297.095C334.921 297.376 334.932 297.68 334.955 298.006C335.154 302.933 335.523 311.577 335.824 314.787C336.251 319.385 338.61 331.792 338.61 331.792C338.61 331.792 334.109 334.985 339.395 342.87C339.395 342.87 339.395 345.721 339.045 346.139C338.67 347.492 338.369 348.868 338.141 350.26C337.92 351.741 337.829 353.247 338.187 354.023C339.045 355.888 344.19 355.736 344.19 355.736C344.231 355.725 344.273 355.718 344.316 355.715C345.287 355.601 346.269 355.703 347.204 356.015C348.139 356.326 349.009 356.841 349.762 357.529C351.717 359.267 359.134 358.508 363.154 357.951C364.728 357.727 365.78 357.529 365.78 357.529C365.831 357.332 365.849 357.126 365.834 356.921V356.921C365.792 355.829 365.018 353.433 359.774 351.294C359.774 351.294 354.842 347.624 354.911 344.426H354.8H354.232C354.591 344.414 354.842 344.414 354.842 344.414C354.842 344.414 352.91 336.614 353.699 335.977C354.488 335.34 352.125 326.696 352.125 326.696C352.125 326.696 350.772 312.184 350.696 311.172C350.701 310.299 350.821 309.432 351.054 308.599L350.696 300.638C350.696 300.638 350.627 297.993 350.696 297.133C350.688 296.386 350.634 295.64 350.536 294.901C350.501 294.606 350.467 294.298 350.429 293.994C352.277 293.475 353.478 292.999 353.478 292.999L353.264 265.304C354.835 261.93 355.124 254.522 355.117 249.274C355.117 245.899 354.979 243.402 354.979 243.402L357.125 239.525C357.125 239.525 357.621 234.885 356.835 233.868C356.489 233.409 356.645 232.932 356.931 232.54C357.081 232.403 357.24 232.279 357.407 232.168C357.388 232.139 357.372 232.108 357.358 232.076C357.507 231.937 357.667 231.811 357.834 231.7C357.834 231.7 357.072 230.392 357.754 229.84C358.394 230.321 358.966 230.704 359.4 230.979C359.37 231.287 359.339 231.464 359.339 231.464L359.522 231.042C359.942 231.304 360.197 231.464 360.197 231.464C360.197 231.464 363.558 224.052 363.486 222.964C363.414 221.875 365.773 217.269 365.773 217.269C365.773 217.269 366.059 214.847 367.347 213.835C368.635 212.822 368.345 205.486 368.345 205.486C368.345 205.486 368.704 201.664 369.561 200.108C370.419 198.551 368.795 196.434 368.795 196.434ZM304.477 193.181L304.542 194.949C304.161 194.269 303.886 193.784 303.886 193.784L304.477 193.181Z"
            fill="url(#paint1_linear_357_4969)"/>
        <path
            d="M360.395 228.258L359.572 232.139C359.572 232.139 352.978 228.405 351.793 223.681C350.608 218.956 353.779 217.155 353.779 217.155L359.926 220.032L360.395 228.258Z"
            fill="white"/>
        <path opacity="0.1"
              d="M360.395 228.258L359.572 232.139C359.572 232.139 352.978 228.405 351.793 223.681C350.608 218.956 353.779 217.155 353.779 217.155L359.926 220.032L360.395 228.258Z"
              fill="#DC2626"/>
        <path
            d="M323.392 360.343C323.392 360.343 317.294 362.823 313.102 363.135C310.876 363.3 309.706 361.79 309.104 360.334C308.777 359.531 308.563 358.678 308.471 357.803L309.024 351.117L309.314 347.561L318.22 344.996L319.482 349.269L319.6 349.59C320.103 351.02 322.138 356.816 322.077 358.027C322.072 358.34 322.125 358.651 322.232 358.941C322.338 359.231 322.497 359.494 322.699 359.714C322.905 359.955 323.138 360.166 323.392 360.343V360.343Z"
            fill="white"/>
        <path
            d="M365.026 356.943C365.042 357.147 365.023 357.353 364.972 357.55C364.972 357.55 351.93 359.955 349.263 357.55C348.513 356.848 347.639 356.326 346.696 356.019C345.754 355.712 344.764 355.625 343.79 355.766C343.79 355.766 338.744 355.917 337.901 354.078C337.551 353.306 337.642 351.809 337.86 350.336C338.081 348.952 338.377 347.582 338.744 346.236L338.946 346.059L340.146 344.992L354.202 344.532H354.309C354.24 347.712 359.076 351.361 359.076 351.361C364.225 353.471 364.984 355.854 365.026 356.943Z"
            fill="white"/>
        <path opacity="0.1"
              d="M365.03 356.943C365.043 357.147 365.024 357.353 364.972 357.55C364.972 357.55 351.93 359.955 349.266 357.55C348.516 356.847 347.641 356.325 346.698 356.018C345.755 355.711 344.765 355.625 343.79 355.766C343.79 355.766 338.74 355.917 337.898 354.078C337.551 353.306 337.638 351.809 337.856 350.332C339.799 350.547 342.867 351.083 344.072 352.365C345.894 354.306 348.981 356.246 350.871 356.403C352.365 356.504 361.249 356.816 365.03 356.943Z"
              fill="#DC2626"/>
        <path opacity="0.1"
              d="M323.392 360.343C323.392 360.343 317.294 362.823 313.102 363.135C310.876 363.3 309.706 361.79 309.104 360.334C310.659 360.912 312.812 361.515 313.944 360.963C315.286 360.3 320.042 359.879 322.71 359.697C322.911 359.944 323.14 360.161 323.392 360.343V360.343Z"
              fill="#DC2626"/>
        <path
            d="M332.44 160.433C327.409 158.269 320.938 151.119 322.554 147.778C322.911 146.934 323.124 146.024 323.182 145.095C323.286 143.832 323.302 142.563 323.228 141.298C323.115 139.225 322.89 137.161 322.554 135.118C322.554 135.118 338.26 135.51 337.345 138.071C337.078 138.826 337.032 140.129 337.109 141.585C337.185 143.04 337.372 144.698 337.57 146.094C337.84 148.005 338.119 149.469 338.119 149.469C338.119 149.469 337.154 150.958 336.594 151.038C336.034 151.119 339.658 163.534 332.44 160.433Z"
            fill="#CF6F80"/>
        <path opacity="0.1"
              d="M319.585 349.569L319.467 349.712C314.771 343.426 309.092 351.264 309.092 351.264L309.009 351.096L309.298 347.539L318.205 344.975L319.467 349.248L319.585 349.569Z"
              fill="#DC2626"/>
        <path opacity="0.1"
              d="M354.316 344.975C354.316 344.975 350.886 344.899 349.057 346.687C347.227 348.476 338.385 347.071 338.766 346.687C338.878 346.493 338.946 346.271 338.965 346.042L340.165 344.975L354.221 344.515C354.274 344.81 354.316 344.975 354.316 344.975Z"
              fill="#DC2626"/>
        <path
            d="M325.427 295.614C325.172 296.314 324.978 297.038 324.848 297.778C324.53 299.806 324.442 301.869 324.585 303.92C324.726 306.873 324.585 326.662 324.585 326.662C324.585 326.662 321.57 331.94 319.886 333.8C318.201 335.66 323.316 339.001 323.316 339.001C324.078 343.815 319.459 349.248 319.459 349.248C314.764 342.962 309.085 350.796 309.085 350.796C309.085 350.796 305.998 344.89 305.228 342.781C304.458 340.672 308.243 339.216 309.573 338.356C310.903 337.495 309.504 332.45 309.504 332.45C309.504 332.45 308.384 328.025 307.05 323.988C305.716 319.951 308.521 299.858 308.521 299.858C308.521 299.858 308.666 296.285 309.012 295.041C309.186 294.142 309.22 293.218 309.115 292.307C309.092 291.999 309.066 291.746 309.047 291.569C309.028 291.392 309.012 291.316 309.012 291.316L309.066 291.214L310.971 287.283C310.971 287.283 326.342 293.138 325.427 295.614Z"
            fill="#2B2E4A"/>
        <path
            d="M354.316 344.511C354.316 344.511 350.886 344.43 349.057 346.198C347.227 347.966 338.385 346.586 338.766 346.198C339.147 345.81 339.113 342.941 339.113 342.941C333.926 335.099 338.351 331.918 338.351 331.918C338.351 331.918 336.038 319.579 335.618 315.002C335.325 311.809 334.963 303.191 334.768 298.31C334.685 296.201 334.635 294.745 334.635 294.745L338.835 293.821L339.38 293.703L349.602 291.429C349.602 291.429 349.884 293.539 350.074 295.264C350.171 296 350.223 296.743 350.23 297.487C350.166 298.331 350.23 300.976 350.23 300.976L350.581 308.89C350.355 309.721 350.237 310.583 350.23 311.45C350.303 312.463 351.633 326.894 351.633 326.894C351.633 326.894 353.946 335.508 353.158 336.128C352.369 336.749 354.316 344.511 354.316 344.511Z"
            fill="#2B2E4A"/>
        <path opacity="0.1"
              d="M337.345 138.084C337.078 138.839 337.032 140.142 337.109 141.598C335.005 143 332.586 143.717 330.131 143.666C327.676 143.615 325.283 142.799 323.228 141.311C323.115 139.238 322.889 137.174 322.554 135.131C322.554 135.131 338.26 135.523 337.345 138.084Z"
              fill="#DC2626"/>
        <path
            d="M343.409 128.769C343.45 132.597 342.116 136.285 339.7 139.024C337.284 141.763 333.985 143.328 330.527 143.373C327.069 143.419 323.736 141.943 321.262 139.269C318.787 136.595 317.374 132.942 317.332 129.115C317.332 128.997 317.332 128.887 317.332 128.769C317.332 124.941 318.706 121.269 321.152 118.562C323.598 115.854 326.915 114.333 330.374 114.333C333.833 114.333 337.15 115.854 339.596 118.562C342.042 121.269 343.416 124.941 343.416 128.769H343.409Z"
            fill="#CF6F80"/>
        <path opacity="0.1"
              d="M332.44 160.433C327.409 158.269 320.938 151.119 322.554 147.778C322.911 146.934 323.124 146.024 323.182 145.095L330.069 151.363L334.33 155.232L337.57 146.107C337.84 148.018 338.119 149.482 338.119 149.482C338.119 149.482 337.154 150.971 336.594 151.051C336.034 151.131 339.658 163.534 332.44 160.433Z"
              fill="#DC2626"/>
        <path
            d="M350.25 188.136L344.499 295.074L336.998 295.618L317.572 233.611L320.759 159.994L321.433 144.441L330.069 152.291L334.33 156.16L337.665 146.765L343.866 152.747L350.25 188.136Z"
            fill="#2B2E4A"/>
        <path opacity="0.1"
              d="M325.427 295.614C325.172 296.313 324.978 297.038 324.848 297.778C319.385 296.847 314.079 295.014 309.108 292.341L309.005 292.282L309.039 291.602V291.248L310.945 287.316C310.945 287.316 326.342 293.138 325.427 295.614Z"
              fill="#DC2626"/>
        <path opacity="0.1"
              d="M338.961 297.795C337.566 298.059 336.159 298.238 334.746 298.331C334.662 296.222 334.612 294.766 334.612 294.766L338.835 293.821L338.961 297.795Z"
              fill="#DC2626"/>
        <path opacity="0.1"
              d="M350.09 295.264C347.38 296.044 343.191 296.922 339.449 296.374L339.395 293.703L349.617 291.429C349.617 291.429 349.888 293.522 350.09 295.264Z"
              fill="#DC2626"/>
        <path opacity="0.1"
              d="M339.38 296.863C323.754 299.816 309.443 291.349 309.443 291.349L309.58 288.481C309.58 288.481 309.935 255.96 308.951 253.467C307.968 250.974 307.202 238.348 307.758 236.42C308.315 234.493 305.727 205.385 305.727 205.385L305.308 193.573L289.953 186.668L296.813 170.836C297.739 168.617 298.536 166.334 299.199 164.002C300.391 159.889 305.929 155.852 305.929 155.852C305.929 155.852 311.608 151.819 313.853 151.971C316.097 152.123 319.04 148.402 319.04 148.402C321.212 142.272 323.179 145.027 323.179 145.027C323.179 145.322 323.179 145.027 323.072 145.934C322.31 152.663 335.397 173.924 335.584 174.303L336.846 207.908L338.107 250.434L339.38 296.863Z"
              fill="#DC2626"/>
        <path
            d="M338.961 296.863C323.335 299.816 309.02 291.349 309.02 291.349L309.161 288.481C309.161 288.481 309.512 255.96 308.528 253.467C307.545 250.974 306.779 238.336 307.339 236.391C307.9 234.446 305.297 205.368 305.297 205.368L304.874 193.557L289.522 186.651L296.382 170.819C297.306 168.6 298.103 166.319 298.768 163.989C299.961 159.889 305.518 155.848 305.518 155.848C305.518 155.848 311.196 151.815 313.437 151.967C315.678 152.118 318.636 148.402 318.636 148.402C320.812 142.272 323.209 145.027 323.209 145.027C323.209 145.322 322.981 145.449 323.102 145.934C324.779 152.46 335.009 173.924 335.195 174.303L336.457 207.908L337.692 250.455L338.961 296.863Z"
            fill="white"/>
        <path opacity="0.1"
              d="M334.749 175.253C333.069 174.476 324.166 163.226 324.166 163.226V160.665C323.842 159.821 321.913 160.336 320.354 160.927L321.025 145.373L321.788 146.073C323.453 152.595 334.566 174.877 334.749 175.253Z"
              fill="#DC2626"/>
        <path
            d="M335.173 174.324C333.488 173.544 324.585 162.298 324.585 162.298V159.733C324.261 158.889 322.336 159.404 320.774 159.994L321.433 144.458L322.195 145.154C323.876 151.667 334.986 173.945 335.173 174.324Z"
            fill="white"/>
        <path opacity="0.1"
              d="M309.443 230.43C309.653 230.43 320.309 229.19 320.309 229.19C320.309 229.19 326.761 243.238 326.338 246.65C325.915 250.063 325.149 253.092 322.554 252.556C319.958 252.02 308.586 252.978 308.586 252.978L309.443 230.43Z"
              fill="#DC2626"/>
        <path
            d="M309.02 229.498C309.233 229.498 319.89 228.258 319.89 228.258C319.89 228.258 326.338 242.326 325.919 245.701C325.5 249.076 324.726 252.143 322.134 251.607C319.543 251.071 308.162 252.029 308.162 252.029L309.02 229.498Z"
            fill="white"/>
        <path
            d="M317.05 222.921C317.05 222.921 326.83 228.743 327.039 230.515C327.249 232.286 322.062 229.738 320.941 229.426C320.203 229.232 319.453 229.103 318.697 229.038L311.223 229.262L317.05 222.921Z"
            fill="#CF6F80"/>
        <path opacity="0.1"
              d="M332.017 175.978C332.585 175.978 333.046 175.468 333.046 174.839C333.046 174.21 332.585 173.7 332.017 173.7C331.449 173.7 330.988 174.21 330.988 174.839C330.988 175.468 331.449 175.978 332.017 175.978Z"
              fill="#DC2626"/>
        <path
            d="M332.017 175.514C332.585 175.514 333.046 175.004 333.046 174.375C333.046 173.746 332.585 173.236 332.017 173.236C331.449 173.236 330.988 173.746 330.988 174.375C330.988 175.004 331.449 175.514 332.017 175.514Z"
            fill="#3F3D56"/>
        <path opacity="0.1"
              d="M333.911 225.284C334.479 225.284 334.94 224.774 334.94 224.145C334.94 223.516 334.479 223.006 333.911 223.006C333.343 223.006 332.882 223.516 332.882 224.145C332.882 224.774 333.343 225.284 333.911 225.284Z"
              fill="#DC2626"/>
        <path
            d="M333.911 224.815C334.479 224.815 334.94 224.306 334.94 223.676C334.94 223.047 334.479 222.538 333.911 222.538C333.343 222.538 332.882 223.047 332.882 223.676C332.882 224.306 333.343 224.815 333.911 224.815Z"
            fill="#3F3D56"/>
        <path opacity="0.1"
              d="M333.046 200.631C333.614 200.631 334.075 200.121 334.075 199.492C334.075 198.863 333.614 198.353 333.046 198.353C332.478 198.353 332.017 198.863 332.017 199.492C332.017 200.121 332.478 200.631 333.046 200.631Z"
              fill="#DC2626"/>
        <path
            d="M333.046 200.167C333.614 200.167 334.075 199.657 334.075 199.028C334.075 198.399 333.614 197.889 333.046 197.889C332.478 197.889 332.017 198.399 332.017 199.028C332.017 199.657 332.478 200.167 333.046 200.167Z"
            fill="#3F3D56"/>
        <path
            d="M356.767 228.802C356.767 228.802 357.468 229.966 356.767 230.489C356.066 231.012 356.835 232.354 356.835 232.354C356.835 232.354 355.086 233.484 355.856 234.51C356.626 235.535 356.138 240.137 356.138 240.137L354.034 244.014C354.034 244.014 354.16 246.498 354.168 249.856C354.168 255.096 353.889 262.461 352.35 265.819L352.555 293.37C352.555 293.37 345.188 296.352 339.022 295.441L338.107 251.232C338.107 251.232 339.441 226.161 339.933 221.352C340.22 218.855 340.338 216.338 340.283 213.822C340.283 213.822 340.074 206.296 339.369 202.808C339.369 202.808 338.606 187.672 338.53 183.483C338.496 181.479 338.591 175.632 338.698 170.072C338.816 163.993 338.949 158.261 338.949 158.261L337.558 146.073C337.558 146.073 338.949 145.921 339.369 146.537C339.556 146.732 339.761 146.905 339.978 147.056C342.383 148.853 350.867 154.38 350.867 154.38C350.867 154.38 355.563 156.447 356.687 159.408C357.811 162.369 358.592 164.47 359.137 165.314C359.682 166.158 359.98 170.123 359.98 170.123C359.98 170.123 361.596 177.421 362.857 178.657C364.119 179.893 365.026 187.739 365.026 187.739L353.878 197.442C353.878 197.442 352.898 213.582 352.689 214.206C352.479 214.83 356.767 228.802 356.767 228.802Z"
            fill="white"/>
        <path
            d="M357.19 228.802C357.19 228.802 357.887 229.966 357.19 230.489C356.492 231.012 357.255 232.354 357.255 232.354C357.255 232.354 355.505 233.484 356.275 234.51C357.045 235.535 356.557 240.137 356.557 240.137L354.461 244.014C354.461 244.014 354.587 246.498 354.598 249.856C354.598 255.096 354.32 262.461 352.78 265.819L352.99 293.37C352.99 293.37 345.623 296.352 339.456 295.441L338.545 251.232C338.545 251.232 339.876 226.161 340.371 221.352C340.659 218.855 340.775 216.338 340.718 213.822C340.718 213.822 340.508 206.296 339.807 202.808C339.807 202.808 339.045 187.672 338.965 183.483C338.93 181.479 339.026 175.632 339.132 170.072C339.25 163.993 339.384 158.261 339.384 158.261L337.547 145.909C337.547 145.909 339.384 145.909 339.807 146.537C339.993 146.734 340.197 146.908 340.417 147.056V147.056C342.818 148.853 351.302 154.38 351.302 154.38C351.302 154.38 355.985 156.447 357.129 159.408C358.272 162.369 359.034 164.47 359.579 165.314C360.124 166.158 360.422 170.123 360.422 170.123C360.422 170.123 362.038 177.421 363.299 178.657C364.561 179.893 365.472 187.739 365.472 187.739L354.324 197.442C354.324 197.442 353.344 213.582 353.131 214.206C352.917 214.83 357.19 228.802 357.19 228.802Z"
            fill="white"/>
        <path opacity="0.1"
              d="M343.839 161.842L344.849 165.09L339.548 170.996C339.666 164.917 339.799 159.184 339.799 159.184L337.962 146.837C337.962 146.837 339.799 146.837 340.222 147.465C340.408 147.662 340.613 147.836 340.832 147.984V147.984L345.337 162.365L343.839 161.842Z"
              fill="#DC2626"/>
        <path
            d="M343.409 160.91L344.419 164.154L339.121 170.06C339.235 163.981 339.373 158.248 339.373 158.248L337.532 145.896C337.532 145.896 339.373 145.896 339.792 146.525C339.979 146.72 340.183 146.894 340.402 147.044V147.044L344.933 161.437L343.409 160.91Z"
            fill="white"/>
        <path opacity="0.1"
              d="M343.409 128.769C343.41 130.289 343.194 131.8 342.768 133.245C342.697 133.258 342.623 133.255 342.552 133.236C342.482 133.218 342.415 133.183 342.357 133.135C342.254 129.339 340.569 125.77 338.492 122.737C337.908 121.822 337.201 121.011 336.396 120.332C335.581 119.655 334.568 119.338 333.553 119.442C332.409 119.615 331.4 120.476 330.245 120.585C328.72 120.724 327.356 119.556 325.843 119.501C325.228 119.507 324.621 119.658 324.062 119.945C323.504 120.231 323.008 120.647 322.607 121.163C321.811 122.202 321.221 123.413 320.873 124.719C320.274 126.701 319.947 128.772 319.905 130.861C319.886 132.043 319.783 133.523 318.792 133.954C318.867 133.086 318.778 132.21 318.531 131.382C318.283 130.554 317.883 129.792 317.355 129.145L317.332 129.115C317.332 128.997 317.332 128.887 317.332 128.769C317.332 124.941 318.706 121.269 321.152 118.562C323.598 115.854 326.915 114.333 330.374 114.333C333.833 114.333 337.15 115.854 339.596 118.562C342.042 121.269 343.416 124.941 343.416 128.769H343.409Z"
              fill="#DC2626"/>
        <path
            d="M335.786 105.85C333.806 104.819 331.553 104.624 329.452 105.302C328.396 105.648 327.401 106.209 326.331 106.491C324.044 107.103 321.376 106.441 319.413 107.921C318.323 108.765 317.668 110.098 317.058 111.397L315.533 114.608C314.703 116.367 313.864 118.155 313.517 120.092C313.17 122.028 313.38 124.196 314.489 125.757C315.293 126.888 316.49 127.601 317.367 128.668C317.893 129.319 318.292 130.083 318.539 130.913C318.786 131.743 318.874 132.62 318.8 133.49C319.79 133.068 319.89 131.579 319.912 130.397C319.955 128.308 320.282 126.237 320.88 124.255C321.228 122.949 321.819 121.738 322.615 120.699C323.015 120.182 323.512 119.766 324.07 119.479C324.628 119.191 325.235 119.039 325.85 119.033C327.375 119.092 328.743 120.26 330.252 120.117C331.396 120.012 332.409 119.151 333.56 118.978C334.575 118.872 335.589 119.189 336.403 119.868C337.209 120.545 337.915 121.356 338.496 122.273C340.577 125.31 342.265 128.862 342.364 132.671C342.795 133.017 343.416 132.562 343.63 132.022C343.843 131.482 343.851 130.849 344.121 130.334C344.434 129.739 345.032 129.419 345.501 128.972C346.69 127.837 346.987 125.926 346.941 124.192C346.896 122.458 346.591 120.699 346.888 118.995C347.067 117.953 347.471 116.97 347.692 115.937C347.913 114.903 347.94 113.743 347.418 112.853C346.656 111.549 345.051 111.288 343.652 111.165C342.063 111.014 340.642 111.208 339.628 109.727C339.151 108.955 338.615 108.23 338.027 107.559C337.817 107.335 335.786 105.943 335.786 105.85Z"
            fill="#512E4E"/>
        <path opacity="0.1"
              d="M294.351 194.809L290.372 186.664L289.11 199.235C289.11 199.235 289.812 204.82 289.671 205.676C289.53 206.533 292.544 214.21 292.544 214.21C292.544 214.21 302.503 233.847 306.569 234.855L320.29 223.989L316.646 218.867C316.646 218.867 315.385 218.323 315.068 218.867C315.068 218.867 308.3 205.984 307.602 205.056C306.905 204.128 307.038 202.259 307.038 202.259C307.038 202.259 305.986 201.019 306.337 199.855C306.688 198.69 304.325 194.658 304.325 194.658L306.497 192.409L294.351 194.809Z"
              fill="#DC2626"/>
        <path
            d="M290.581 185.731L289.529 186.664L288.268 199.235C288.268 199.235 288.969 204.82 288.828 205.676C288.687 206.533 291.706 214.21 291.706 214.21C291.706 214.21 301.661 233.847 305.727 234.855L319.47 223.989L315.823 218.867C315.823 218.867 314.561 218.323 314.245 218.867C314.245 218.867 307.48 205.984 306.779 205.056C306.078 204.128 306.219 202.259 306.219 202.259C306.219 202.259 305.167 201.019 305.517 199.855C305.868 198.69 303.482 194.658 303.482 194.658L305.655 192.409L290.581 185.731Z"
            fill="white"/>
        <path opacity="0.1"
              d="M355.856 234.995C356.618 236.02 356.138 240.626 356.138 240.626L354.034 244.478C354.034 244.478 354.16 246.967 354.168 250.325L350.631 251.548C350.311 251.658 349.971 251.683 349.641 251.618C349.311 251.554 348.999 251.404 348.732 251.179C348.465 250.954 348.25 250.663 348.106 250.328C347.961 249.992 347.892 249.624 347.902 249.253L348.516 227.486L356.767 230.974C356.066 231.514 356.835 232.839 356.835 232.839C356.835 232.839 355.086 233.97 355.856 234.995Z"
              fill="#DC2626"/>
        <path
            d="M356.275 234.531C357.037 235.551 356.557 240.158 356.557 240.158L354.461 244.014C354.461 244.014 354.587 246.498 354.598 249.856L350.997 251.101C350.684 251.209 350.352 251.233 350.029 251.171C349.706 251.109 349.402 250.962 349.141 250.743C348.879 250.523 348.669 250.238 348.528 249.911C348.387 249.583 348.319 249.223 348.329 248.861L348.942 227.018L357.19 230.515C356.485 231.055 357.255 232.379 357.255 232.379C357.255 232.379 355.505 233.506 356.275 234.531Z"
            fill="white"/>
        <path
            d="M359.012 224.145C359.012 224.145 358.451 228.106 357.049 228.338C355.646 228.57 355.018 234.746 353.619 234.531C352.22 234.316 353.146 228.785 353.196 227.714C353.245 226.642 351.671 222.204 352.845 221.196C354.019 220.188 357.754 221.196 357.754 221.196L359.012 224.145Z"
            fill="#CF6F80"/>
        <path opacity="0.1"
              d="M361.977 193.645L364.618 187.739C364.618 187.739 365.674 192.24 365.674 194.645C365.674 197.049 367.145 197.286 367.145 197.286C367.145 197.286 368.757 199.395 367.907 200.935C367.057 202.474 366.718 206.288 366.718 206.288C366.718 206.288 366.996 213.582 365.735 214.59C364.473 215.598 364.191 218.007 364.191 218.007C364.191 218.007 361.878 222.584 361.95 223.672C362.023 224.761 358.726 232.13 358.726 232.13C358.726 232.13 360.338 222.972 350.943 219.015C350.943 219.015 350.871 215.91 351.572 215.058C352.273 214.206 353.367 213.793 352.681 209.507C351.995 205.221 352.483 200.053 352.483 199.019C352.483 197.986 354.587 191.544 354.587 191.544L361.977 193.645Z"
              fill="#DC2626"/>
        <path
            d="M363.151 186.896L365.46 187.739C365.46 187.739 366.516 192.24 366.516 194.645C366.516 197.049 367.987 197.286 367.987 197.286C367.987 197.286 369.599 199.395 368.749 200.935C367.899 202.474 367.556 206.288 367.556 206.288C367.556 206.288 367.838 213.582 366.577 214.59C365.315 215.598 365.052 218.007 365.052 218.007C365.052 218.007 362.739 222.584 362.811 223.672C362.884 224.761 359.583 232.13 359.583 232.13C359.583 232.13 361.195 222.972 351.801 219.015C351.801 219.015 351.732 215.91 352.433 215.058C353.135 214.206 354.229 213.793 353.543 209.507C352.856 205.221 353.344 200.053 353.344 199.019C353.344 197.986 355.448 191.544 355.448 191.544L363.151 186.896Z"
            fill="white"/>
        <path opacity="0.1"
              d="M312.126 339.972C312.126 339.972 315.808 337.411 318.224 339.271C320.64 341.132 312.126 339.972 312.126 339.972Z"
              fill="#DC2626"/>
        <path opacity="0.1"
              d="M340.741 332.053C340.741 332.053 343.999 331.589 346.736 334.85C349.472 338.111 340.741 332.053 340.741 332.053Z"
              fill="#DC2626"/>
        <g opacity="0.1">
            <path opacity="0.1"
                  d="M345.501 128.044C345.032 128.495 344.43 128.811 344.117 129.406C343.851 129.917 343.843 130.549 343.629 131.093C343.416 131.638 342.795 132.089 342.36 131.743C342.261 127.946 340.573 124.382 338.496 121.345C337.915 120.429 337.209 119.619 336.403 118.944C335.588 118.264 334.573 117.945 333.556 118.05C332.413 118.223 331.407 119.083 330.252 119.193C328.728 119.332 327.359 118.164 325.846 118.109C325.232 118.114 324.625 118.265 324.068 118.552C323.51 118.839 323.015 119.254 322.615 119.771C321.819 120.81 321.228 122.021 320.88 123.327C320.282 125.309 319.955 127.38 319.912 129.469C319.889 130.646 319.79 132.114 318.807 132.553C318.83 132.866 318.83 133.181 318.807 133.494C319.802 133.072 319.901 131.583 319.924 130.402C319.967 128.312 320.293 126.242 320.892 124.26C321.24 122.953 321.83 121.742 322.626 120.703C323.026 120.187 323.522 119.771 324.079 119.483C324.637 119.196 325.243 119.044 325.858 119.037C327.382 119.096 328.754 120.265 330.264 120.121C331.407 120.016 332.421 119.155 333.568 118.982C334.584 118.876 335.599 119.194 336.415 119.872C337.221 120.549 337.927 121.36 338.507 122.277C340.584 125.314 342.273 128.866 342.372 132.675C342.806 133.021 343.427 132.566 343.641 132.026C343.854 131.486 343.862 130.853 344.129 130.338C344.441 129.744 345.043 129.423 345.512 128.976C346.701 127.841 346.999 125.93 346.953 124.196C346.953 124.141 346.953 124.091 346.953 124.036C346.877 125.546 346.515 127.077 345.501 128.044Z"
                  fill="#DC2626"/>
            <path opacity="0.1"
                  d="M317.363 127.748C316.49 126.681 315.293 125.964 314.489 124.833C313.81 123.835 313.423 122.631 313.38 121.383C313.261 122.944 313.654 124.5 314.489 125.766C315.293 126.896 316.49 127.609 317.363 128.676C318.206 129.72 318.713 131.043 318.804 132.439C318.861 131.59 318.763 130.737 318.515 129.931C318.268 129.125 317.876 128.383 317.363 127.748Z"
                  fill="#DC2626"/>
            <path opacity="0.1"
                  d="M347.692 115.008C347.468 116.042 347.067 117.025 346.884 118.067C346.775 118.771 346.735 119.487 346.766 120.201C346.779 119.798 346.818 119.396 346.884 118.999C347.067 117.957 347.468 116.974 347.692 115.941C347.822 115.37 347.864 114.78 347.818 114.194C347.794 114.469 347.752 114.741 347.692 115.008V115.008Z"
                  fill="#DC2626"/>
        </g>
        <path opacity="0.1"
              d="M50.5861 353.88C71.0959 353.88 87.7224 350.924 87.7224 347.278C87.7224 343.632 71.0959 340.676 50.5861 340.676C30.0762 340.676 13.4497 343.632 13.4497 347.278C13.4497 350.924 30.0762 353.88 50.5861 353.88Z"
              fill="#2B2E4A"/>
        <path d="M51.7828 220.804H49.3932V280.356H51.7828V220.804Z" fill="#535461"/>
        <path
            d="M66.8028 280.179L66.6503 282.862L66.4407 286.658L66.3531 288.236L66.1396 292.033L66.0482 293.61L65.8385 297.407L63.4261 340.465C63.3232 342.318 62.5857 344.057 61.3641 345.329C60.1424 346.6 58.5286 347.308 56.8517 347.307H44.3243C42.6428 347.308 41.0248 346.597 39.8022 345.319C38.5797 344.041 37.8454 342.294 37.75 340.436L35.3375 297.378L35.1279 293.581L35.0402 292.003L34.823 288.207L34.7353 286.629L34.5257 282.832L34.3733 280.149C34.3469 279.635 34.4153 279.12 34.5744 278.636C34.7335 278.152 34.9799 277.709 35.2986 277.334C35.6174 276.958 36.0018 276.659 36.4284 276.453C36.8551 276.247 37.3151 276.14 37.7805 276.138H63.3994C63.8668 276.14 64.3287 276.249 64.7568 276.457C65.1849 276.665 65.5702 276.967 65.8889 277.345C66.2076 277.724 66.4531 278.17 66.6102 278.658C66.7674 279.145 66.8329 279.662 66.8028 280.179V280.179Z"
            fill="#DC2626"/>
        <path d="M66.6502 282.858L66.4368 286.646H34.7352L34.5218 282.858H66.6502Z" fill="#9D9CB5"/>
        <path d="M66.3492 288.223L66.1396 292.012H35.0364L34.8229 288.223H66.3492Z" fill="#9D9CB5"/>
        <path d="M66.0482 293.594L65.8386 297.378H35.3375L35.1241 293.594H66.0482Z" fill="#9D9CB5"/>
        <path
            d="M30.8898 243.128C44.8083 254.273 50.6052 271.704 50.6052 271.704C50.6052 271.704 33.8359 271.067 19.9136 259.922C5.99123 248.776 0.186768 231.358 0.186768 231.358C0.186768 231.358 16.9561 231.983 30.8898 243.128Z"
            fill="#2B2E4A"/>
        <path
            d="M0.186768 231.358C0.186768 231.358 17.5925 242.052 23.176 250.907C28.7594 259.761 50.5899 271.712 50.5899 271.712"
            stroke="#535461" stroke-width="2" stroke-miterlimit="10"/>
        <path
            d="M39.8576 220.677C47.4343 226.739 50.5899 236.226 50.5899 236.226C50.5899 236.226 41.443 235.881 33.8854 229.819C26.3278 223.757 23.1531 214.265 23.1531 214.265C23.1531 214.265 32.2847 214.611 39.8576 220.677Z"
            fill="#2B2E4A"/>
        <path
            d="M23.1531 214.265C23.1531 214.265 32.6277 220.087 35.6691 224.904C38.7104 229.722 50.5899 236.226 50.5899 236.226"
            stroke="#535461" stroke-width="2" stroke-miterlimit="10"/>
        <path
            d="M61.5967 235.746C52.8957 246.33 51.0549 260.162 51.0549 260.162C51.0549 260.162 63.3231 256.83 72.0165 246.241C80.7098 235.653 82.5583 221.825 82.5583 221.825C82.5583 221.825 70.2976 225.161 61.5967 235.746Z"
            fill="#2B2E4A"/>
        <path
            d="M82.5659 221.829C82.5659 221.829 71.2314 232.679 68.3501 240.154C65.4688 247.629 51.0549 260.162 51.0549 260.162"
            stroke="#535461" stroke-width="2" stroke-miterlimit="10"/>
    </g>
    <defs>
        <linearGradient id="paint0_linear_357_4969" x1="177.423" y1="352.479" x2="177.423" y2="108.799"
                        gradientUnits="userSpaceOnUse">
            <stop stop-color="#808080" stop-opacity="0.25"/>
            <stop offset="0.54" stop-color="#808080" stop-opacity="0.12"/>
            <stop offset="1" stop-color="#808080" stop-opacity="0.1"/>
        </linearGradient>
        <linearGradient id="paint1_linear_357_4969" x1="72519.2" y1="228368" x2="72519.2" y2="68647"
                        gradientUnits="userSpaceOnUse">
            <stop stop-color="#808080" stop-opacity="0.25"/>
            <stop offset="0.54" stop-color="#808080" stop-opacity="0.12"/>
            <stop offset="1" stop-color="#808080" stop-opacity="0.1"/>
        </linearGradient>
        <clipPath id="clip0_357_4969">
            <rect width="445" height="364" fill="white"/>
        </clipPath>
    </defs>
</svg>
